<?xml version="1.0" encoding="utf-8"?>
<!-- Generator: Adobe Illustrator 28.3.0, SVG Export Plug-In . SVG Version: 6.00 Build 0)  -->
<svg version="1.1" id="Layer_1" xmlns="http://www.w3.org/2000/svg" xmlns:xlink="http://www.w3.org/1999/xlink" x="0px" y="0px"
	 viewBox="0 0 450 450" style="enable-background:new 0 0 450 450;" xml:space="preserve">
<style type="text/css">
	.st0{fill:#E3D781;}
	.st1{fill:#F2ECC2;}
	.st2{fill:#FFFFFF;}
	.st3{fill:#96A453;}
	.st4{fill:#74863E;}
	.st5{fill:#505A2E;}
	.st6{fill:#FFCE99;}
	.st7{fill:#FFE7CC;}
	.st8{fill:#F3A95A;}
	.st9{fill:#B7C268;}
	.st10{fill:#2B2E1D;}
	.st11{fill:#DAE6A3;}
	.st12{fill:#CAD691;}
	.st13{fill:#B93C20;}
</style>
<g>
	<rect x="6.75" y="6.75" class="st0" width="142.5" height="142.5"/>
	<polygon class="st1" points="6.75,85.24 40.67,65.19 61,69.16 76,44.94 89.5,55.46 101,41.77 112.5,46.53 132,27.48 149.25,49.51 
		149.25,149.25 6.75,149.25 	"/>
	<polygon class="st2" points="21.57,76.48 40.67,65.19 42.67,70.83 34.33,79.88 35.99,72.53 	"/>
	<polygon class="st2" points="76,44.94 61,69.16 56.67,79.88 70.67,65.19 74,69.56 80,60.43 84.33,62.41 	"/>
	<polygon class="st2" points="101,41.77 89.5,55.46 74.94,88.36 96.67,55.27 98,65.19 	"/>
	<polygon class="st2" points="112.5,46.53 107,68.85 121,51.84 125,41.77 129.33,49.46 132.33,41.77 132,27.48 	"/>
	<path class="st3" d="M149.25,75.57c-13.78,0.31-28.07,3.47-41.92,10.85C62.02,110.57,24.9,119.16,6.75,129.25v19.99h142.5V75.57z"
		/>
	<path class="st4" d="M149.25,119.58c-27.03-1.35-65.14-2.96-102.25-14.01c-14.93-4.45-28.39-6.04-40.25-5.69v49.37h142.5V119.58z"
		/>
	<path class="st5" d="M6.75,140.73c27.03-1.15,65.14-19.18,102.25-28.56c14.93-3.78,28.39-5.13,40.25-4.83v41.91H6.75V140.73z"/>
	<path class="st1" d="M127.13,26.56c0-1.9-5.63-3.44-12.57-3.44c-6.94,0-12.57,1.54-12.57,3.44c0,1.9,5.63,3.44,12.57,3.44
		C121.5,30,127.13,28.46,127.13,26.56z"/>
	<path class="st1" d="M107.16,29.56c0-1.26-4.51-2.27-10.07-2.27c-5.56,0-10.07,1.02-10.07,2.27c0,1.26,4.51,2.27,10.07,2.27
		C102.66,31.83,107.16,30.82,107.16,29.56z"/>
	<path class="st1" d="M72.93,46.04c0-0.85-3.04-1.54-6.8-1.54c-3.75,0-6.8,0.69-6.8,1.54s3.04,1.54,6.8,1.54
		C69.88,47.58,72.93,46.89,72.93,46.04z"/>
	<path class="st1" d="M66.75,43.85c0-0.85-3.04-1.54-6.8-1.54c-3.75,0-6.8,0.69-6.8,1.54c0,0.85,3.04,1.54,6.8,1.54
		C63.71,45.38,66.75,44.69,66.75,43.85z"/>
	<path class="st1" d="M7.28,55.59c-0.18,0-0.35,0-0.53,0.01v6.14c0.18,0,0.35,0.01,0.53,0.01c7.52,0,13.62-1.38,13.62-3.08
		S14.8,55.59,7.28,55.59z"/>
</g>
<g>
	<rect x="153.75" y="6.75" class="st6" width="142.5" height="142.5"/>
	<polygon class="st7" points="153.75,79.88 168.5,68.85 181.5,74.37 197,41.77 211.5,68.85 225,23.12 244,65.07 255,39.5 261,51.5 
		266,48.17 278.5,72.53 287.5,65.07 296.25,78 296.25,149.25 153.75,149.25 	"/>
	<polygon class="st8" points="168.5,68.85 166.83,72.17 169.92,70 166.83,76.17 172.67,71.17 166.83,80.33 176.19,72.11 171.83,78 
		178.93,73.28 175.83,78 181.5,74.37 	"/>
	<polygon class="st8" points="197,41.77 197,45.75 198.67,46.58 197.83,48.83 200.31,47.96 197.58,51.25 201.44,50.06 197.83,55.42 
		202.55,52.13 198.17,58.42 204.05,54.93 199.5,62.25 204.83,58.25 199.17,66.92 206.83,61.92 200.58,70.92 208.75,65.58 197,81 
		211.5,68.85 	"/>
	<polygon class="st2" points="153.75,79.88 166.08,70.66 166.08,79.88 	"/>
	<polygon class="st2" points="182.55,72.16 196.01,43.85 197,68.85 194.5,78 191.5,65.07 	"/>
	<polygon class="st2" points="223.86,26.97 211.5,68.85 218.25,62.41 225,73 229.25,65.07 	"/>
	<polygon class="st2" points="253.76,42.38 244,65.07 239.33,78 249,69.83 259.83,79.88 264.83,52.17 254.33,60.92 	"/>
	<polygon class="st2" points="285.91,66.39 278.5,72.53 272.67,79.88 285.91,76.17 	"/>
	<polygon class="st8" points="225,23.12 225,28.12 226.5,28.12 225,31.62 228.58,31.03 226.12,36.12 229.92,33.98 226.38,39.5 
		231.7,37.9 227.75,45.12 233.45,41.77 228.38,49.99 233.45,45.12 229.25,54.38 235.12,49.99 229.25,58.25 237.12,54.12 
		231.06,62.12 239.33,58 229.25,70.75 242.12,63.75 229.75,78 241.75,71.3 244,65.07 	"/>
	<polygon class="st8" points="255,39.5 255,42.88 256.44,42.38 255,45.88 257.28,44.05 255,48.88 258,47.12 255,53.38 259.12,49.99 
		255,58.5 261,51.5 	"/>
	<polygon class="st8" points="266,48.17 266,52.38 267.25,52.38 265.38,55.88 268.25,54.25 264.83,60.5 269.75,57 264.83,64.88 
		271.75,61.13 267.5,67.12 274.43,64.59 263.88,75.25 276.39,68.43 271.12,75.25 278.5,72.53 	"/>
	<polygon class="st8" points="287.5,65.07 287.5,68 289.49,68 287.5,71.62 291.94,71.62 287.5,77.5 294.39,75.25 288.75,84.5 
		296.25,84.5 296.25,78 	"/>
	<polygon class="st9" points="153.75,87 157.34,83.4 159.71,87.06 161.83,85.23 163.33,86.26 164.17,83.4 166.08,84.32 
		168.08,81.01 170.02,83.68 172.57,81.27 174.17,85.89 177.76,85.66 179.97,88.48 182.55,88.48 184.39,92.28 187.09,88.91 
		190.18,92.99 194.1,88.45 195.73,90.89 197.48,87.93 200.05,90.67 202.6,85.41 205.1,88.21 208.53,84.08 210.33,87 213,82.72 
		214.33,86.07 217,81.27 218.9,85.16 224.11,83.47 225,86.07 229.25,84.03 231.33,86.07 232.67,84.77 234.5,87 235.83,84.4 
		236.67,87 239.33,85.7 241.17,88.49 244,84.58 244.66,88.29 249.65,85.37 252.08,81.27 253.5,85.89 255.67,84.58 258,87 
		259.67,83.09 261.83,87 263.88,85.33 265.83,87.93 268.67,87 271.19,90.54 272.67,85.79 275.54,90.35 278.5,89.9 280.75,90.72 
		283.17,89.05 285,92.99 287.6,90.71 289.5,94.07 291.88,91.41 293.09,94.82 294.43,92.85 296.12,96.2 296.25,149.25 153.75,149.25 
			"/>
	<path class="st5" d="M296.25,146.5V95.17l-1.82,3.57l-0.09,1.71l-0.52,1.61l-0.32-2.76l-1.18-2.77l-0.14-1.27l-2.15-4.72
		l-2.38,4.68l-0.04,1.61l-1.23,2.56l-1.53,4.22l-0.86,4.7l-2.66-4.13l4.34,1.62l-1.19-3.99l-1.7-2.99l-0.13-1.62l-1.71-3.78
		l-0.07,0.13l-0.01-0.13l0,0.15l-1.83,3.58l-0.09,1.71l-1.73,2.91l-1.2,4l-0.16,5.24l-1.28,3.51l5.81-2.52l0,0.21l-6.53,6.06
		l5.41-2.07l-4.06,5.81l5.01-3.14l-0.01,0.53l-6.57,7.25l5.7-2.71l-4.12,5.36l-4.3-4.8l2.94,1.4l-3.96-4.5l6.23,1.7l-8.56-6.09
		l-0.06-1.35l7.44,4.14l-6.65-8.82l4.71,2.14l-1.4-4.92l-1.54-4.15l-1.18-2.77l-0.14-1.27l-2.15-4.73l-2.38,4.68l2.29-1.14
		l-2.33,2.74l-1.23,2.56l-0.91,3.53l0.94-1.51l-3.17-3.7l1.47,0.7l-0.13-1.62l-1.72-3.78l-0.04,0.07l0-0.03l0,0.04l-1.86,3.66
		l-0.09,1.71l-1.64,2.82l-5.18-5.73l4.51,1.62l-4.68-5.32l3.14,1.17l-3.17-3.62l1.99,0.85l-2.13-2.28l-0.04-0.88l2.03,1.89
		l-2.15-4.72l-2.38,4.68l-0.04,1.6l-1.23,2.56l0.01,2.51l-1.95-2.28l1.47,0.7l-1.77-2.02l1.64,0.4l-1.71-3.78l-0.07,0.13l-0.01-0.13
		l0,0.15l-1.83,3.58l1.77-1.5l-1.86,3.21l1.74-0.84l-3.47,3.75l-1.16,2.29l-1.18-2.77l-0.14-1.27l-2.15-4.73l-2.38,4.68l-0.04,1.6
		l-1.23,2.56l0.63,1.82l-1.53-2.79l-0.13-1.62l-1.72-3.78l-0.04,0.07l0-0.03l0,0.04l-1.86,3.66l-0.09,1.71l-0.18,1.24l-1.69-1.97
		l1.47,0.7l-0.13-1.62l-1.71-3.78l-0.07,0.13l-0.01-0.13l0,0.15l-1.74,3.4l-1.03-3.57l-1.18-2.77l-0.14-1.27l-2.15-4.72l-2.38,4.68
		l2.29-1.14l-2.33,2.74l-1.23,2.56l0.24,2.26l-1.06-2.33l-0.07,0.13l-0.01-0.13l0,0.15l-1.83,3.58l-0.09,1.71l0.04,1l-3.82-6.49
		l4.33,2.16l-1.19-3.99l-1.7-2.99l-1.74-1.98l1.6,0.36l-1.72-3.78l-0.04,0.07l0-0.03l0,0.04l-1.86,3.66l-0.09,1.71l-1.73,2.91
		l3.49-1.08l-4.69,5.08l0.34,4.54l-3.33-3.87l-0.02-0.42l3.33,1.66l-3.17-3.7l1.47,0.7l-1.77-2.02L200,95.6l1.69,1.58l-1.71-3.78
		l-0.07,0.13l-0.01-0.13l0,0.15l-1.83,3.58l-0.09,1.71l0.16,0.87l-0.89-3.41l-1.18-2.77l-0.14-1.27l-2.15-4.72l-2.38,4.68
		l-0.04,1.61l-1.23,2.56l0.08,2.43l-1.65-2.93l-0.13-1.62l-1.72-3.78l-0.04,0.07l0-0.04l0,0.04l-1.86,3.66l-0.09,1.71l-1.73,2.91
		l-0.89,3.66l0.11-1.34l-0.12-5.32l-1.19-3.99l-1.7-2.99l-0.13-1.62l-1.71-3.78l-0.07,0.13l-0.01-0.13l0,0.15l-1.83,3.58l-0.09,1.71
		l-1.73,2.91l-1.2,4l-0.16,5.24l0.03,2.31l0.54-0.98l-4.45-7.48l4.33,2.16l-1.19-3.99l-1.7-2.99l-0.13-1.62l-1.72-3.78l-0.04,0.07
		l0-0.03l0,0.04l-1.86,3.66l-0.09,1.71l-1.73,2.91l-1.2,4l-0.16,5.24l0.15,2.2l-5.15-6.22l4.54,2.17l-1.54-4.15l-1.18-2.77
		l-2.13-2.28l1.99,1.01l-2.15-4.72l-2.38,4.68l-0.04,1.61l-1.23,2.56l-0.01,2.53v0.95v2.71v1.81v1.71v3.56v2.04v8.64l1.2-0.52
		l-1.2,1.36v6.99l2.64-1.42L156.08,139h3.63l-0.55-12.23l0.88,0.38l-0.32,0.35l0.55-0.26l6.49,2.76l-0.16,6.21h3.63l-0.5-11.13
		l0.74-0.35l5.57,2.76l-3.29-3.82l1.55-0.72l1.93,0.94l-0.29,11.05h3.63l-0.09-2.13l5.38-2.51l-1.09,1.29l1.87-1l-0.3,11.41h3.63
		l-0.53-11.86l3.72,1.84l-0.04,0.06l0.08-0.04l0.43,0.21l-0.06,2.16l-0.84,0.91l0.83-0.39l-0.11,4.1h3.63l-0.25-5.62l3.08-1.44
		l-0.34,12.92h3.63l-0.57-12.75l5.24,2.59l-0.03,1.23l-0.38,0.5l0.38-0.2l-0.07,2.69l-0.7,0.76l1.4-0.66h2.92l-0.06-1.33l2.91-1.36
		l-0.34,12.92h3.63l-0.57-12.75l1.57,0.78l-0.04,1.71l-0.64,0.69l0.63-0.29l-0.03,1.08h3.63l-0.07-1.47l1.04,0.52l-0.96,1.04
		l2.86-1.33l-0.26,10.03h3.63l-0.47-10.52l1.41-0.76l-0.29,11.28h3.63l-0.47-10.59l2.04,1.01l-1.85-2.14l3.29,1.63l-0.2,7.58h3.63
		l-0.44-9.79l1.02,0.5l-1.06-1.22l-0.08-1.71l0.02-0.01l5.39,2.3l-0.21,8.05h3.63l-0.57-12.75l3.17,1.57l-0.18,6.78h2.49l-0.08,0.09
		l0.19-0.09h1.03l-0.02-0.47l5.99-2.79l0,0.04l-1.77,2.09l1.74-0.93l-0.28,10.85h3.63l-0.53-11.84l4.3,2.13l-0.19,7.2h3.63
		l-0.42-9.4l0.23,0.11l-0.24-0.27l-0.12-2.67l8.3,3.54l-2.99-3.19l6.22-2.9l-0.34,12.92h3.63l-0.52-11.68l1.01-0.54l3.58,1.77
		l-0.33,0.36l0.54-0.25l1.44,0.71l-0.04,1.75l-0.74,0.8l0.72-0.34l-0.12,4.54h3.63l-0.27-6.06l3.23-1.51l-0.31,12.07H296.25z"/>
	<polygon class="st5" points="296.12,132.3 294.43,129.3 293.09,131.06 291.88,128.01 289.5,130.39 287.6,127.38 285,129.42 
		283.17,125.89 280.75,127.39 278.5,126.65 275.54,127.06 272.67,122.98 271.19,127.23 268.67,124.06 265.83,124.89 263.88,122.56 
		261.83,124.06 259.67,120.56 258,124.06 255.67,121.89 253.5,123.06 252.08,118.92 249.65,122.6 244.66,125.21 244,121.89 
		241.17,125.39 239.33,122.89 236.67,124.06 235.83,121.73 234.5,124.06 232.67,122.06 231.33,123.23 229.25,121.39 225,123.23 
		224.11,120.89 218.9,122.4 217,118.92 214.33,123.23 213,120.23 210.33,124.06 208.53,121.44 205.1,125.14 202.6,122.63 
		200.05,127.34 197.48,124.89 195.73,127.54 194.1,125.36 190.18,129.42 187.09,125.76 184.39,128.78 182.55,125.38 179.97,125.38 
		177.76,122.86 174.17,123.06 172.57,118.92 170.02,121.08 168.08,118.69 166.08,121.66 164.17,120.83 163.33,123.39 161.83,122.47 
		159.71,124.11 157.34,120.83 153.75,124.06 153.75,149.25 296.17,149.25 	"/>
	<polygon class="st10" points="220.13,138.53 206.54,125.46 224.42,134.31 212.53,122.16 218.21,124.64 206.92,115.22 222.59,119.7 
		206.08,108.95 205.97,106.56 220.32,113.88 205.38,99.86 216.58,102.08 205.19,93.68 205.14,89.57 213.89,93.4 204.87,84 
		204.84,83.39 210.92,86.07 204.8,79.68 208.64,81.18 204.54,77.16 204.46,75.6 208.37,78.94 204.22,70.59 199.62,78.86 
		204.08,75.41 204.04,76.85 199.54,81.69 203.63,79.7 197.17,86.22 203.85,83.29 203.84,83.91 194.21,93.67 203.68,89.49 
		203.65,90.38 191.63,102.92 203.32,97.14 187.84,114.54 203.2,106.5 203.13,108.83 185.76,121.74 202.29,115.37 189.91,125.07 
		202.29,120.64 183.51,133.93 199.47,127.61 188.07,139.39 196.96,135.34 184.9,148.36 202.25,139.85 201.99,149.25 208.05,149.25 
		207.59,139.84 223.59,146.09 212.59,135.33 	"/>
	<polygon class="st10" points="291.09,141.65 275.5,126.75 289.87,135.17 275.77,121.1 275.76,120.91 284.27,124.89 277,116.6 
		290.27,121.23 275.26,112.24 275.17,110.63 285.21,113.1 274.93,106.35 274.87,105.29 282.82,109.43 274.53,99.34 274.48,98.48 
		282.59,101.64 274.22,94.02 274.19,93.37 280.35,95.78 274.42,90.37 277.16,91.4 273.91,88.5 273.81,86.76 276.91,89.03 
		273.7,83.49 273.63,83.6 273.63,83.55 273.63,83.61 270.14,88.97 273.52,86.73 273.47,88.45 269.97,91.48 273.23,90.25 
		266.74,95.74 273.3,93.37 273.28,94.16 264.5,101.6 273.13,98.47 273.1,99.44 264.19,109.29 272.91,105.17 272.87,106.53 
		261.79,114.42 272.73,110.71 272.68,112.29 256.9,121.62 271.88,116.37 262.95,125.39 272.4,120.76 272.39,121.01 257.11,134.93 
		272,128.62 256,141.78 271.88,135.75 258.25,146.19 271.71,141.27 271.45,149.25 277.37,149.25 276.93,141.58 288.81,146.18 
		275.5,134.12 	"/>
	<polygon class="st10" points="169.98,137.81 169.66,149.25 176.62,149.25 176.08,138.16 190.44,144.66 175.53,129.93 189.59,138.8 
		175.96,121.34 187.99,126.96 174.83,112.5 174.76,111.13 185.01,116.73 174.31,104.06 187.95,110.36 174.11,97.71 174.07,96.78 
		186.13,100.26 173.77,90.77 173.21,86.15 183.27,95.13 173.29,80.92 173.24,79.78 183,84.23 172.93,73.51 172.89,72.65 
		180.33,76.05 173.24,68.48 176.52,69.93 172.56,65.79 172.44,63.37 176.22,66.62 172.38,58.88 172.23,59.15 172.22,58.88 
		172.21,59.18 168.12,66.53 172.09,63.46 172.02,65.89 167.92,70.04 171.82,68.32 164.06,75.99 171.83,72.71 171.79,73.86 
		161.38,84.18 171.63,79.84 171.58,83.57 161.02,94.92 171.36,89.21 171.31,91.14 158.15,102.1 171.14,96.95 171.13,97.37 
		156.53,109.77 168.62,105.54 159.53,117.43 170.74,111 170.71,112.09 156.02,126.94 170.88,120.96 154.8,138.02 168.8,130.93 
		153.92,144.67 	"/>
</g>
<g>
	<rect x="300.75" y="6.75" class="st0" width="142.5" height="142.5"/>
	<polygon class="st1" points="443.25,149.25 443.25,51.63 438.04,49.45 433.42,56.16 425.49,47.07 418.88,51.63 408.97,29.87 
		403.68,29.87 396.41,21.69 390.47,29.87 385.18,21.69 375.93,37.1 372.63,29.87 368,42.68 362.71,39.02 350.82,58.67 
		308.13,149.25 	"/>
	<polygon class="st2" points="362.71,39.02 362.71,48.64 366.18,51 367.67,55.54 368,42.68 	"/>
	<polygon class="st2" points="372.63,29.87 372.63,47.28 375.93,37.1 	"/>
	<polygon class="st2" points="385.18,21.69 385.18,31.59 387.25,31.59 386.21,48.38 388.73,55.54 390.47,29.87 	"/>
	<polygon class="st2" points="396.41,21.69 396.41,37.1 399.64,35.26 400.88,48.64 403.68,29.87 	"/>
	<polygon class="st2" points="409.33,30.67 409.33,42.68 412.52,44.08 414.5,55.46 418.88,51.63 	"/>
	<polygon class="st2" points="425.49,47.07 425.49,58.87 433.42,56.16 	"/>
	<polygon class="st2" points="438.04,49.45 439.04,61.5 443.25,58.87 443.25,51.63 	"/>
	<polygon class="st2" points="362.71,58.07 362.71,64.91 365.36,63.46 	"/>
	<polygon class="st2" points="379.23,47.28 380.56,69.76 385.18,67.01 	"/>
	<polygon class="st2" points="395.09,48.64 396.41,67.01 398.4,67.01 396.75,49.45 	"/>
	<polygon class="st2" points="409.33,52.97 409.33,63.46 414.11,61.49 	"/>
	<polygon class="st2" points="427.47,64.91 424.17,75.29 429.45,79.7 	"/>
	<polygon class="st0" points="443.25,149.25 443.25,78.04 438.04,96.92 429.45,87.27 414.11,80.69 424.17,94.71 418.88,96.92 
		411.72,87.27 403.68,99.67 403.68,79.29 395.09,89.75 395.09,70.46 390.47,90.03 395.09,118.42 385.18,115.11 375.93,102.71 
		368,97.47 372.63,106.84 368,115.11 364.03,102.71 359.74,92.37 359.74,115.11 350.82,102.71 348.84,92.37 345.53,99.33 
		345.53,111.8 337.19,115.11 311.71,149.25 	"/>
	<polygon class="st2" points="351.81,72.3 350.82,83.69 354.54,94.71 	"/>
	<polygon class="st2" points="372.63,69.42 372.63,83.69 380.56,90.85 385.18,104.91 387.82,104.91 	"/>
	<polygon class="st2" points="408.95,69.42 408.95,78.32 411.72,69.42 	"/>
	<path class="st5" d="M443.31,133.4c-57.31-0.83-54.32-11.93-113.1-20.93c-15.15-2.32-17.69-1.4-29.4-2.23v39.01h142.5V133.4z"/>
	<polygon class="st5" points="432.87,126.06 430.33,128.64 433.87,119.97 428.89,125.23 432.89,115.42 430.98,117.43 433.55,111.01 
		429.51,113.44 435.06,104.75 435.1,102.83 430.27,108.73 434.59,96.16 431.53,99.21 435.37,89.89 435.38,89.11 432.44,92.2 
		435.47,84.62 435.48,84.12 433.44,86.29 435.54,80.99 435.69,73.78 435.78,80.86 438.06,86.4 435.81,84.04 435.82,84.54 
		439.06,92.42 435.87,89.04 435.88,89.76 439.93,99.89 436.69,96.3 441.2,109.27 436.03,102.78 436.06,104.66 441.9,115.08 
		438.11,111.92 440.51,117.77 438.52,115.66 442.66,124.93 437.29,119.83 441.13,129.34 438.14,126.07 442.19,136.58 436.35,129.7 
		436.56,147.14 434.2,147.14 434.56,129.7 429.17,134.74 	"/>
	<polygon class="st5" points="305.77,117.03 300.75,121.42 305.76,111.09 301.24,115.52 306.85,102.73 306.86,102.56 303.46,106.17 
		305.83,100.13 301.08,102.85 307.05,94.67 307.09,93.2 303.09,95.45 307.19,89.31 307.21,88.34 304.04,92.12 307.35,82.94 
		307.37,82.15 304.14,85.02 307.47,78.1 307.48,77.51 305.03,79.7 307.39,74.77 306.3,75.71 307.59,73.07 307.63,71.49 306.4,73.56 
		307.68,68.52 307.7,68.62 307.7,68.57 307.71,68.63 309.1,73.5 307.75,71.46 307.77,73.03 309.16,75.78 307.86,74.67 310.45,79.66 
		307.83,77.5 307.84,78.22 311.34,84.99 307.9,82.14 307.91,83.02 311.46,91.98 307.99,88.24 308.01,89.48 312.42,96.65 
		308.06,93.28 308.08,94.71 314.37,103.2 309.49,100.31 311.96,106.63 308.2,102.42 308.2,102.64 314.28,115.3 309.26,110.86 
		314.73,121.54 309.49,117.13 313.83,125.55 308.47,121.08 308.7,137.17 305.99,137.17 306.39,121.36 301.66,125.54 	"/>
	<polygon class="st5" points="340.43,122.17 335.41,125.65 340.43,117.47 335.9,120.98 341.52,110.85 341.52,110.72 338.13,113.58 
		340.5,108.8 335.74,110.95 341.72,104.48 341.75,103.31 337.75,105.1 341.85,100.24 341.88,99.47 338.71,102.45 342.01,95.19 
		342.03,94.57 338.8,96.84 342.13,91.36 342.15,90.89 339.69,92.63 342.05,88.73 340.96,89.47 342.26,87.38 342.3,86.13 
		341.06,87.76 342.34,83.78 342.37,83.86 342.37,83.82 342.37,83.86 343.76,87.72 342.41,86.11 342.43,87.35 343.83,89.53 
		342.53,88.64 345.11,92.6 342.5,90.89 342.51,91.46 346.01,96.81 342.57,94.56 342.58,95.26 346.13,102.35 342.65,99.39 
		342.67,100.37 347.09,106.05 342.73,103.38 342.75,104.51 349.03,111.23 344.15,108.94 346.62,113.94 342.86,110.61 342.86,110.79 
		348.95,120.81 343.92,117.29 349.39,125.74 344.16,122.25 348.49,128.92 343.13,125.38 343.36,138.12 340.66,138.12 341.05,125.6 
		336.32,128.91 	"/>
	<polygon class="st5" points="416.24,138.21 419.92,132.99 416.53,135.55 421.16,127.6 417.07,130.16 421.55,123.57 421.57,122.95 
		418.09,125.5 420.94,120.51 417.09,122.6 421.79,116.84 421.81,116.42 417.71,118 421.91,113.68 421.93,113.01 418.68,115.67 
		422.07,109.2 422.09,108.68 418.77,110.71 422.19,105.82 422.21,105.43 419.68,106.98 422.09,103.54 420.97,104.19 422.32,102.31 
		422.36,101.21 421.07,102.69 422.38,99.16 422.43,99.29 422.43,99.16 422.44,99.3 423.83,102.65 422.48,101.25 422.5,102.35 
		423.89,104.24 422.57,103.46 425.21,106.96 422.57,105.46 422.58,105.98 426.12,110.68 422.63,108.71 422.65,109.35 426.24,115.57 
		422.73,112.97 422.74,113.85 427.22,118.84 422.8,116.49 422.8,116.69 427.77,122.33 423.66,120.4 426.75,125.82 422.94,122.89 
		422.95,123.39 427.94,130.15 423.61,127.62 428.35,135.19 424.44,132.6 428.65,138.22 423.19,135.1 423.45,147.14 420.69,147.14 
		421.12,135.25 	"/>
	<polygon class="st5" points="311.3,116.11 315.43,107.57 311.63,111.75 316.82,98.76 312.24,102.94 317.25,92.18 317.28,91.17 
		313.37,95.33 316.57,87.17 312.25,90.59 317.53,81.17 317.54,80.49 312.95,83.07 317.66,76.01 317.68,74.91 314.03,79.26 
		317.84,68.68 317.86,67.84 314.14,71.15 317.98,63.17 317.99,62.53 315.16,65.06 317.86,59.43 316.61,60.5 318.12,57.43 
		318.17,55.63 316.72,58.04 318.19,52.28 318.24,52.48 318.25,52.28 318.25,52.51 319.81,57.97 318.3,55.69 318.32,57.5 
		319.89,60.58 318.4,59.31 321.36,65.02 318.4,62.58 318.41,63.43 322.38,71.11 318.47,67.88 318.49,68.94 322.52,79.1 
		318.58,74.86 318.6,76.29 323.61,84.45 318.66,80.61 318.66,80.92 324.23,90.15 319.62,87 323.09,95.85 318.81,91.07 318.82,91.88 
		324.42,102.92 319.56,98.8 324.89,111.17 320.49,106.94 325.22,116.12 319.1,111.01 319.39,130.71 316.29,130.71 316.78,111.27 	
		"/>
</g>
<g>
	<rect x="300.75" y="153.75" class="st0" width="142.5" height="142.5"/>
	<rect x="300.75" y="153.75" class="st0" width="142.5" height="142.5"/>
	<path class="st1" d="M418.95,179.93c0-2.06-5.63-3.73-12.57-3.73c-6.94,0-12.57,1.67-12.57,3.73c0,2.06,5.63,3.73,12.57,3.73
		C413.32,183.66,418.95,181.99,418.95,179.93z"/>
	<path class="st1" d="M402.41,179.93c0-2.06-5.63-3.73-12.57-3.73c-6.94,0-12.57,1.67-12.57,3.73c0,2.06,5.63,3.73,12.57,3.73
		C396.78,183.66,402.41,181.99,402.41,179.93z"/>
	<path class="st1" d="M367.55,173.94c0-2.06-5.63-3.73-12.57-3.73c-6.94,0-12.57,1.67-12.57,3.73c0,2.06,5.63,3.73,12.57,3.73
		C361.92,177.67,367.55,176,367.55,173.94z"/>
	<path class="st1" d="M397.75,185.65c0-1.36-4.51-2.47-10.07-2.47c-5.56,0-10.07,1.1-10.07,2.47s4.51,2.47,10.07,2.47
		C393.24,188.11,397.75,187.01,397.75,185.65z"/>
	<path class="st1" d="M415.06,168.11c0-0.86-2.85-1.56-6.37-1.56c-3.52,0-6.38,0.7-6.38,1.56c0,0.86,2.85,1.56,6.38,1.56
		C412.21,169.67,415.06,168.97,415.06,168.11z"/>
	<path class="st1" d="M442.58,173.94c0-1.36-4.51-2.47-10.07-2.47c-5.56,0-10.07,1.1-10.07,2.47c0,1.36,4.51,2.46,10.07,2.46
		C438.07,176.41,442.58,175.31,442.58,173.94z"/>
	<path class="st1" d="M405.58,172.68c0-1.36-4.51-2.47-10.07-2.47c-5.56,0-10.07,1.1-10.07,2.47s4.51,2.46,10.07,2.46
		C401.07,175.14,405.58,174.04,405.58,172.68z"/>
	<path class="st1" d="M391.2,183.18c0-2.59-8.57-4.69-19.15-4.69c-10.58,0-19.15,2.1-19.15,4.69c0,2.59,8.57,4.69,19.15,4.69
		C382.63,187.87,391.2,185.77,391.2,183.18z"/>
	<path class="st1" d="M322.35,173.94c0-1.36-4.51-2.47-10.07-2.47c-5.56,0-10.07,1.1-10.07,2.47c0,1.36,4.51,2.46,10.07,2.46
		C317.85,176.41,322.35,175.31,322.35,173.94z"/>
	<path class="st1" d="M367.55,186.21c0-1.97-6.52-3.56-14.56-3.56c-8.04,0-14.56,1.6-14.56,3.56c0,1.97,6.52,3.56,14.56,3.56
		C361.04,189.77,367.55,188.18,367.55,186.21z"/>
	<path class="st1" d="M412.67,199.96c0-7.59-18.99-13.75-42.41-13.75c-23.43,0-42.41,6.16-42.41,13.75
		c0,7.59,18.99,13.75,42.41,13.75C393.67,213.71,412.67,207.56,412.67,199.96z"/>
	<path class="st1" d="M354.33,181.12c0-1.97-6.51-3.56-14.55-3.56c-8.04,0-14.55,1.6-14.55,3.56c0,1.97,6.52,3.56,14.55,3.56
		C347.82,184.68,354.33,183.09,354.33,181.12z"/>
	<path class="st1" d="M433.67,187.8c0-4.34-9.81-7.87-21.91-7.87c-12.1,0-21.91,3.53-21.91,7.87c0,4.34,9.81,7.87,21.91,7.87
		C423.86,195.67,433.67,192.14,433.67,187.8z"/>
	<path class="st1" d="M443.45,182.65c0-1.97-6.51-3.56-14.55-3.56c-8.04,0-14.55,1.6-14.55,3.56c0,1.97,6.52,3.56,14.55,3.56
		C436.93,186.21,443.45,184.61,443.45,182.65z"/>
	<path class="st1" d="M331.33,182.65c0-1.97-6.51-3.56-14.55-3.56c-8.04,0-14.55,1.6-14.55,3.56c0,1.97,6.52,3.56,14.55,3.56
		C324.82,186.21,331.33,184.61,331.33,182.65z"/>
	<polygon class="st2" points="316.67,203.87 347,187.62 355,193.76 367,185.81 378.85,197.01 389.33,181.84 396.67,192.85 
		403,189.06 420.33,194.84 432.33,184.73 443.25,177.5 443.25,296.25 300.75,296.25 	"/>
	<polygon class="st0" points="316.67,206.68 350.5,197.25 347,187.62 355,193.76 368.75,204 367.55,186.21 378.85,197.01 
		388.91,205.5 389.33,181.84 396.67,192.85 402.31,201 403,189.06 420.33,194.84 438,207 443.25,296.25 300.75,296.25 	"/>
	<path class="st3" d="M300.81,196.29l32.19-16.8c0,0,31.31,44.34,46.5,42.8c12.65-1.28,32-42.8,32-42.8l31.81,16.8l-0.06,99.96
		h-142.5L300.81,196.29z"/>
	<path class="st9" d="M300.81,196.29l32.19-16.8c0,0,31.31,44.34,46.5,42.8c12.65-1.28,32-42.8,32-42.8l31.81,16.8l-0.06,99.96
		h-142.5L300.81,196.29z"/>
	<path class="st4" d="M300.75,162.33c4.25,6.86,41.92,67.18,68.58,70.44c26.67,3.25,66-44.07,68.33-46.96
		c3.33,2.17,5.64,2.89,5.64,2.89l-0.06,107.55h-142.5V162.33z"/>
	<path class="st5" d="M443.31,209.29C437.5,212,404,235.83,375.5,236.92s-70.25-26-74.75-27.63c0,8.67,0,86.96,0,86.96h142.5
		L443.31,209.29z"/>
	<path class="st4" d="M431.5,273.22l11.75-8.1l-31.75-6.53l17.15-3.12h0l-24.15-7.17l3.97-2.93c0,0,0,0,0,0L387,243.42l4.79-3.79
		c0,0,0,0,0,0H377l4.67-2.09c-2.88-0.41-5.65-0.63-8.27-0.63c-3.78,0-7.86,0.45-12.14,1.28l-1.82,0.37
		c-0.15,0.03-0.29,0.06-0.44,0.09l4.25,3.67l-20.84,1.4c0,0,0,0-0.01,0l2.6,2.39l-15.73,3.36l6.14,3.28l-17.15,2.64h0v4.81
		l-10.53,1.9l10.53,10.02l-17.51,2.16v3.79l10.55,7.6l-10.55,2.09v8.47h142.5v-19.09L431.5,273.22z"/>
	<path class="st0" d="M347,296.25c0,0,22.86-9.25,20.55-17.5c-2.3-8.25-37.14-9.17-31.39-19.42c4.92-8.77,20.44-16.55,35.89-16.14
		c10.75,0.29-3.15-4.15-11.39-7.77c4.58-0.17,6.38-2.81,8.67-2.65c2.16,0.15,7.15-0.23,7.15-0.23s-10.6,4.3-2.24,4.34
		c9.92,0.04,16.95,10.93,6.25,10.87c-7.32-0.04-40.17,14.92,3.57,18.12c40.6,2.98,29.05,22,21.68,30.38
		C400,296.25,347,296.25,347,296.25z"/>
	<g>
		<path class="st1" d="M354.98,257.43c2.68,0,5.16-0.16,7.2-0.43c0.55-1.12,1.66-2.24,3.09-3.29c-2.27-0.61-6.03-1.01-10.29-1.01
			c-6.94,0-12.57,1.06-12.57,2.37C342.4,256.37,348.03,257.43,354.98,257.43z"/>
		<path class="st1" d="M395.51,270.73c3.34,0,6.3-0.38,8.13-0.96c-3.39-1.42-7.84-2.56-13.62-3.31c-2.75,0.41-4.58,1.13-4.58,1.94
			C385.45,269.7,389.95,270.73,395.51,270.73z"/>
		<path class="st1" d="M410.32,274.13c-0.92-1-2.11-1.94-3.58-2.82c-2.56,0.19-4.42,0.74-4.42,1.4c0,0.81,2.85,1.47,6.38,1.47
			C409.25,274.18,409.8,274.16,410.32,274.13z"/>
	</g>
	<path class="st1" d="M360.67,235.42c8.24,3.62,22.14,8.06,11.39,7.77c-11.38-0.3-22.79,3.84-29.98,9.54
		c6.95-0.17,12.26-1.1,12.26-2.23c0-0.08-0.03-0.15-0.07-0.22c2.29,0.9,7.33,1.59,13.51,1.81c4.44-2.53,10.16-4.36,12.73-4.35
		c1.8,0.01,3.09-0.3,3.96-0.81c-0.27-0.04-0.54-0.07-0.83-0.11c0.39-0.03,0.76-0.06,1.14-0.09c3.65-2.68-2.49-9.84-10.52-9.87
		c-8.36-0.03,2.24-4.34,2.24-4.34s-4.99,0.38-7.15,0.23C367.05,232.61,365.25,235.25,360.67,235.42z M352.91,249.54
		c0.03,0,0.06,0,0.09,0c0.02,0,0.03,0,0.05,0c0.02,0.02,0.04,0.04,0.06,0.06C353.05,249.58,352.97,249.56,352.91,249.54z"/>
	<g>
		<path class="st2" d="M384.73,246.78c2.37-1.69,0.76-5.21-2.8-7.56l-3.09,1.77L384.73,246.78z"/>
		<path class="st2" d="M367,248.6l0.56-0.36l0.49-4.97c-3.23,0.2-6.42,0.73-9.48,1.53L367,248.6z"/>
		<path class="st2" d="M368.51,238.64l0.24-2.41l-2.75,1.4C366.85,237.97,367.69,238.31,368.51,238.64z"/>
	</g>
	<path class="st1" d="M364.29,292.08c0-0.29-0.98,0.15-2.18,0.15c-1.2,0-2.18-0.45-2.18-0.15c0,0.29,0.98,1.22,2.18,1.22
		C363.32,293.3,364.29,292.38,364.29,292.08z"/>
	<path class="st1" d="M367.94,288.5c0-0.29-0.98,0.15-2.18,0.15c-1.2,0-2.18-0.45-2.18-0.15c0,0.29,0.98,1.22,2.18,1.22
		C366.97,289.72,367.94,288.8,367.94,288.5z"/>
	<path class="st1" d="M373.87,287.85c0-0.29-0.98,0.15-2.18,0.15c-1.2,0-2.18-0.45-2.18-0.15s0.98,1.22,2.18,1.22
		C372.89,289.06,373.87,288.14,373.87,287.85z"/>
	<path class="st1" d="M374.21,291.75c0-0.29-0.98,0.15-2.18,0.15c-1.2,0-2.18-0.45-2.18-0.15s0.98,1.22,2.18,1.22
		C373.23,292.97,374.21,292.05,374.21,291.75z"/>
	<path class="st1" d="M383.8,291.43c0-0.29-0.98,0.15-2.18,0.15c-1.2,0-2.18-0.45-2.18-0.15c0,0.29,0.98,1.22,2.18,1.22
		C382.83,292.64,383.8,291.72,383.8,291.43z"/>
	<path class="st1" d="M385.45,287.19c0-0.29-0.98,0.15-2.18,0.15c-1.2,0-2.18-0.45-2.18-0.15c0,0.29,0.98,1.22,2.18,1.22
		C384.47,288.4,385.45,287.48,385.45,287.19z"/>
	<path class="st1" d="M392.02,289.82c0-0.29-0.98,0.15-2.18,0.15c-1.2,0-2.18-0.45-2.18-0.15c0,0.29,0.98,1.22,2.18,1.22
		C391.04,291.04,392.02,290.12,392.02,289.82z"/>
	<path class="st1" d="M395.64,293.95c0-0.29-0.98,0.15-2.18,0.15c-1.2,0-2.18-0.45-2.18-0.15c0,0.29,0.98,1.22,2.18,1.22
		C394.67,295.17,395.64,294.24,395.64,293.95z"/>
	<path class="st1" d="M404.95,292.08c0-0.29-0.98,0.15-2.18,0.15c-1.2,0-2.18-0.45-2.18-0.15c0,0.29,0.98,1.22,2.18,1.22
		C403.97,293.3,404.95,292.38,404.95,292.08z"/>
	<path class="st1" d="M409.31,286.53c0-0.29-0.98,0.15-2.18,0.15c-1.2,0-2.18-0.45-2.18-0.15c0,0.29,0.98,1.22,2.18,1.22
		C408.33,287.75,409.31,286.82,409.31,286.53z"/>
	<path class="st1" d="M399.48,282.58c0-0.29-0.98,0.15-2.18,0.15c-1.2,0-2.18-0.45-2.18-0.15c0,0.29,0.98,1.22,2.18,1.22
		C398.5,283.8,399.48,282.88,399.48,282.58z"/>
	<path class="st1" d="M398.9,286.27c0-0.29-0.98,0.15-2.18,0.15c-1.2,0-2.18-0.45-2.18-0.15c0,0.29,0.98,1.22,2.18,1.22
		C397.93,287.49,398.9,286.57,398.9,286.27z"/>
	<path class="st1" d="M385.98,281.66c0-0.29-0.98,0.15-2.18,0.15c-1.2,0-2.18-0.45-2.18-0.15c0,0.29,0.98,1.22,2.18,1.22
		C385.01,282.88,385.98,281.96,385.98,281.66z"/>
	<path class="st1" d="M375.3,281.66c0-0.29-0.98,0.15-2.18,0.15c-1.2,0-2.18-0.45-2.18-0.15c0,0.29,0.98,1.22,2.18,1.22
		C374.33,282.88,375.3,281.96,375.3,281.66z"/>
	<path class="st1" d="M372.03,276.35c0-0.29-0.98,0.15-2.18,0.15c-1.2,0-2.18-0.45-2.18-0.15c0,0.29,0.98,1.22,2.18,1.22
		C371.05,277.57,372.03,276.64,372.03,276.35z"/>
	<path class="st1" d="M392.02,276.1c0-0.29-0.98,0.15-2.18,0.15c-1.2,0-2.18-0.45-2.18-0.15c0,0.29,0.98,1.22,2.18,1.22
		C391.04,277.32,392.02,276.39,392.02,276.1z"/>
	<path class="st1" d="M381.09,277.67c0-0.3-0.98,0.15-2.18,0.15c-1.2,0-2.18-0.45-2.18-0.15c0,0.29,0.98,1.22,2.18,1.22
		C380.11,278.89,381.09,277.96,381.09,277.67z"/>
	<path class="st1" d="M402.31,277.67c0-0.3-0.98,0.15-2.18,0.15c-1.2,0-2.18-0.45-2.18-0.15c0,0.29,0.98,1.22,2.18,1.22
		C401.34,278.89,402.31,277.96,402.31,277.67z"/>
	<path class="st1" d="M378.91,272.19c0-0.29-0.98,0.15-2.18,0.15c-1.2,0-2.18-0.45-2.18-0.15c0,0.3,0.98,1.22,2.18,1.22
		C377.93,273.41,378.91,272.49,378.91,272.19z"/>
	<path class="st1" d="M367.45,269.82c0-0.29-0.98,0.15-2.18,0.15c-1.2,0-2.18-0.45-2.18-0.15s0.98,1.22,2.18,1.22
		C366.47,271.03,367.45,270.11,367.45,269.82z"/>
	<path class="st1" d="M380.3,266.94c0-0.29-0.98,0.15-2.18,0.15c-1.2,0-2.18-0.45-2.18-0.15s0.98,1.22,2.18,1.22
		C379.33,268.16,380.3,267.24,380.3,266.94z"/>
	<path class="st1" d="M356.01,266.03c0-0.29-0.98,0.15-2.18,0.15c-1.2,0-2.18-0.45-2.18-0.15c0,0.29,0.98,1.22,2.18,1.22
		C355.04,267.24,356.01,266.32,356.01,266.03z"/>
	<path class="st1" d="M366.47,265.37c0-0.29-0.98,0.15-2.18,0.15c-1.2,0-2.18-0.45-2.18-0.15c0,0.29,0.98,1.22,2.18,1.22
		C365.5,266.58,366.47,265.66,366.47,265.37z"/>
	<path class="st1" d="M346.76,262.85c0-0.29-0.98,0.15-2.18,0.15c-1.2,0-2.18-0.45-2.18-0.15c0,0.29,0.98,1.22,2.18,1.22
		C345.79,264.07,346.76,263.14,346.76,262.85z"/>
	<path class="st1" d="M357.14,262.85c0-0.29-0.98,0.15-2.18,0.15c-1.2,0-2.18-0.45-2.18-0.15c0,0.29,0.98,1.22,2.18,1.22
		C356.17,264.07,357.14,263.14,357.14,262.85z"/>
</g>
<g>
	<rect x="153.75" y="153.75" class="st1" width="142.5" height="142.5"/>
	<polygon class="st0" points="168.57,216 184,218.5 198,205 206.33,211.75 217.5,183.18 221.94,185.65 228.5,175.14 241,195.67 
		244.1,195.67 248.99,209.29 258.5,209.29 274.13,218.5 289,207 296.25,213.71 296.25,296.25 153.75,296.25 153.75,218.5 	"/>
	<path class="st4" d="M296.25,235.9c-20.96-3.26-45.29,4.62-71.25,4.62c-25.96,0-50.29-5.93-71.25-2.67v39.56h142.5V235.9z"/>
	<path class="st1" d="M296.25,252.68c-20.96-4.29-45.29-6.75-71.25-6.75c-25.96,0-50.29,2.46-71.25,6.75v43.57h142.5V252.68z"/>
	<polygon class="st2" points="289,207 287,226.75 274.13,218.5 	"/>
	<polygon class="st2" points="248.99,209.29 254,225 258.5,209.29 	"/>
	<polygon class="st2" points="241,195.67 241,205.75 244.1,195.67 	"/>
	<polygon class="st2" points="198,205 195,229.25 184,218.5 	"/>
	<polygon class="st2" points="168.57,216 163.5,229.25 153.75,225 153.75,218.5 	"/>
	<polygon class="st2" points="217.5,183.18 218.75,199.25 221.25,199.25 219.38,222.62 206.33,211.75 	"/>
	<polygon class="st4" points="295.03,243.07 290.57,236.8 294.68,239.88 289.06,230.34 294.02,233.4 288.59,225.5 288.57,224.76 
		292.79,227.81 289.33,221.83 294,224.34 288.29,217.42 288.28,216.92 293.25,218.82 288.16,213.63 288.13,212.83 292.07,216.02 
		287.96,208.25 287.94,207.63 291.96,210.06 287.81,204.2 287.79,203.74 290.86,205.59 287.93,201.46 289.29,202.25 287.65,199.99 
		287.61,198.67 289.17,200.44 287.58,196.21 287.52,196.36 287.52,196.21 287.51,196.38 285.83,200.39 287.46,198.71 287.43,200.04 
		285.74,202.31 287.35,201.37 284.15,205.56 287.35,203.77 287.34,204.4 283.05,210.03 287.27,207.66 287.25,208.44 282.9,215.9 
		287.16,212.78 287.14,213.84 281.71,219.83 287.07,217.01 287.07,217.24 281.04,224.01 286.03,221.7 282.28,228.2 286.91,224.69 
		286.89,225.28 280.84,233.39 286.09,230.36 280.33,239.45 285.09,236.34 279.97,243.08 286.59,239.33 286.29,253.79 289.63,253.79 
		289.11,239.52 	"/>
	<polygon class="st2" points="228.5,175.14 230.5,185.5 232.5,200.71 234.5,199.25 234.5,218.75 221.94,185.65 	"/>
	<polygon class="st4" points="275.74,237.13 279.82,239.56 275.74,233.85 279.43,236.3 274.85,229.23 274.85,229.13 277.61,231.13 
		275.68,227.79 279.56,229.29 274.69,224.77 274.66,223.96 277.92,225.21 274.58,221.82 274.56,221.28 277.14,223.36 274.45,218.29 
		274.44,217.86 277.07,219.45 274.35,215.62 274.34,215.29 276.34,216.5 274.42,213.78 275.31,214.3 274.25,212.84 274.22,211.97 
		275.23,213.11 274.18,210.33 274.16,210.38 274.16,210.36 274.16,210.38 273.03,213.08 274.12,211.95 274.11,212.82 272.97,214.34 
		274.03,213.72 271.93,216.48 274.05,215.29 274.04,215.69 271.2,219.43 274,217.85 273.99,218.34 271.1,223.29 273.93,221.22 
		273.91,221.91 270.32,225.87 273.87,224.01 273.85,224.8 268.73,229.49 272.71,227.89 270.7,231.38 273.76,229.05 273.76,229.18 
		268.8,236.18 272.89,233.72 268.44,239.62 272.7,237.18 269.17,241.84 273.54,239.37 273.35,248.26 275.55,248.26 275.23,239.52 
		279.08,241.83 	"/>
	<path class="st0" d="M153.75,252.68v8.37l14.82,1.8l15.43-1.8l14,9.73l8.33-4.87l11.17,20.6l4.44-1.78l6.56,7.57l12.5-14.8h3.1
		l4.89-9.82h9.51l15.63-6.64l14.87,8.29l7.25-4.84v-11.82c-20.96-4.29-45.29-6.75-71.25-6.75
		C199.04,245.94,174.71,248.39,153.75,252.68z"/>
	<path class="st2" d="M274.13,261.06l12.87-5.95l2,14.24L274.13,261.06z M258.5,267.7l-4.5-11.33l-5.01,11.33H258.5z M244.1,277.52
		l-3.1-7.27v7.27H244.1z M198,270.79l-3-17.48l-11,7.75L198,270.79z M168.57,262.86l-5.07-9.55l-9.75,3.06v4.69L168.57,262.86z
		 M217.5,286.52l1.25-11.58h2.5l-1.88-16.85l-13.05,7.84L217.5,286.52z M228.5,292.31l2-7.47l2-10.96l2,1.05v-14.06l-12.56,23.86
		L228.5,292.31z"/>
	<polygon class="st4" points="175.07,229.12 178.68,231.14 173.65,224.34 180.73,228.47 175.04,220.77 177.76,222.34 174.1,217.31 
		179.86,219.21 171.96,212.39 171.9,210.88 178.77,215.52 172.64,205.64 176.98,208.04 171.53,200.73 171.51,200.11 175.69,202.54 
		171.38,196.59 171.36,196.2 174.27,197.9 171.35,193.84 173.18,194.8 171.22,192.25 171.18,191.26 173.05,193.37 171.07,188.09 
		168.87,193.33 171,191.14 170.98,192.05 168.83,195.12 170.79,193.86 167.7,197.99 170.89,196.13 170.89,196.53 166.28,202.71 
		170.81,200.06 170.8,200.63 165.05,208.58 169.65,205.75 163.23,215.94 170.58,210.84 170.55,212.32 162.24,220.5 167.64,218.02 
		164.22,222.61 167.04,220.96 161.16,228.23 168.8,224.22 163.34,231.69 167.59,229.12 161.83,237.37 170.13,231.98 169.84,245.66 
		173.18,245.66 172.68,231.97 180.34,235.93 	"/>
	<path class="st9" d="M290.62,251.6c-2.44-0.45-4.92-0.88-7.45-1.28l3.72,3.53l0.01,0.42l-4.62-2.49l3.75,4.61l-4.99-1.64l6.02,4.81
		l0,0.16l-5.36-2l5.43,4.25l0.02,0.75l-4.27-2.21l4.36,5.3l0.02,0.55l-4.22-1.68l4.29,4l0.01,0.45l-3.2-1.27l3.2,2.98l-1.61-0.67
		l1.69,1.61l0.03,0.94l-1.64-1.19l1.69,2.85l0,0.12l0.01-0.1l0.06,0.1l1.58-3l-1.56,1.26l0.05-0.94l1.63-1.6l-1.35,0.56l2.93-2.94
		l-3.07,1.32l0.02-0.33l4.15-4.16l-4.03,1.73l0.02-0.44l4.12-5.51l-3.95,2.26l0.03-0.57l5.1-3.68l-4.97,1.35l0.02-0.36l5.71-4.91
		l-4.67,1.78l3.46-4.25l-4.23,2.17l0.03-0.53L290.62,251.6z"/>
	<path class="st9" d="M276.43,249.33c-1.68-0.23-3.38-0.45-5.09-0.66l2.42,2.42l0,0.09l-3.06-1.65l2.01,2.48l-3.98-1.13l5.12,3.33
		l0.02,0.56l-3.55-1.32l3.59,2.81l0.02,0.49l-2.83-1.47l2.89,3.51l0.01,0.35l-2.8-1.12l2.85,2.65l0.01,0.28l-2.13-0.85l2.11,1.96
		l-1.06-0.44l1.13,1.08l0.02,0.61l-1.1-0.8l1.13,1.91l0,0.02l0-0.02l0.02,0.04l1.04-1.97l-1.01,0.81l0.03-0.62l1.06-1.03l-0.89,0.37
		l1.93-1.93l-2,0.86l0.01-0.23l2.71-2.72l-2.63,1.13l0.02-0.31l2.69-3.6l-2.58,1.48l0.02-0.38l3.33-2.41l-3.26,0.88l0.03-0.58
		l4.87-3.21l-3.87,1.07l1.93-2.37l-2.76,1.42l0-0.07L276.43,249.33z"/>
	<path class="st9" d="M167.04,256.92l-2.82-1.17l3.41,3.26l-5.4-1.76l8.31,5.81l0.03,1.05l-7.35-3.62l6.41,7.23l-4.6-2l5.75,5.64
		l0.01,0.4l-4.53-1.88l4.6,4.39l0.01,0.28l-3.2-1.32l3.09,2.93l-1.96-0.9l2.15,2.18l0.02,0.65l-2.13-1.55l2.2,3.72l1.99-3.75
		l-1.87,1.5l0.04-0.7l1.96-1.81l-1.84,0.68l2.93-2.88l-2.91,1.21l0.01-0.28l4.31-4.23l-4.19,1.73l0.02-0.44l5.45-5.19l-4.35,1.7
		l6.13-7.01l-6.87,3.29l0.06-1.07l7.9-4.84l-5.75,1.35l3.65-3.57l-2.71,1.12l5.69-5.46l-7.08,2.93l5.02-4.83l-3.61,1.44l2.54-2.34
		c-3.68,0.46-7.28,0.97-10.81,1.53l0.79,0.8l-1.59-0.68c-0.43,0.07-0.85,0.14-1.27,0.21l4.06,3.95l-7.64-2.84L167.04,256.92z"/>
</g>
<g>
	<polygon class="st0" points="149.25,296.25 6.75,296.25 6.75,225 6.75,153.75 149.25,153.75 	"/>
	<path class="st3" d="M149.25,187.1c-13.79,0.45-26.95,6.12-41.92,16.07C72.93,226.05,24.9,257.29,6.75,272.24v24.01h142.5V187.1z"
		/>
	<path class="st5" d="M6.75,278.98c27.03-2.32,65.14-38.89,102.25-57.93c14.93-7.66,28.39-10.4,40.25-9.8v85H6.75V278.98z"/>
	<path class="st9" d="M149.25,246.62c-6.98,0.39-14.04,0.88-21.18,1.45c-45.46,3.68-87.28,10.65-121.32,19.49v28.68h142.5V246.62z"
		/>
	<g>
		<polygon class="st11" points="93.43,255.25 68.04,253.97 54,281.23 68.68,285.32 85.25,281.72 		"/>
		<polygon class="st12" points="68.04,253.97 82.75,254.71 78,268.54 71.51,263.82 64.96,273.79 61.5,269.15 		"/>
		<path class="st3" d="M88.72,270.49l0.95,4.88l-1.67,2.9l1.67,3.76c0,0-3-0.07-3,0c0,0.07-0.67,5.91-0.67,5.91l-3.5-3.19
			l-0.92,6.28l-3.92-2.68l-2.5,3.57l-3.58-2.68l-2.92,5.13l-3.71-3.9l-2.21,5.43l-5-4.74L54,295.22l-3.25-4.81L52,283.2l8.08-3.43
			l6.58,2.61l2.67-1.85l3.08,1.37l5.58-3.3l5-1.51L88.72,270.49z"/>
		<polygon class="st12" points="85.38,261.08 85.88,266.02 90.48,255.1 87.93,254.97 		"/>
	</g>
	<g>
		<polygon class="st11" points="60.18,296.25 68.04,270.84 70.25,263.69 31.79,264.26 28.12,296.25 		"/>
		<polygon class="st4" points="63.05,296.25 63.33,293.58 64.96,289.25 64.96,280.79 58.55,296.25 		"/>
		<polygon class="st12" points="45.14,264.06 49.5,264.06 37.83,294.34 		"/>
		<polygon class="st12" points="52.75,263.95 52.75,282.83 56.5,280.08 60.83,263.95 		"/>
		<polygon class="st12" points="63.33,274.43 65.08,263.76 67.5,263.69 		"/>
		<polygon class="st12" points="57.25,292.46 61.5,283.33 59.38,279.2 		"/>
		<polygon class="st12" points="45.4,296.25 50.75,293.69 48.2,279.57 42.3,296.25 		"/>
	</g>
	<g>
		<polygon class="st11" points="41.7,296.25 47.1,275.97 6.75,275.6 6.75,296.25 		"/>
		<polygon class="st9" points="42.51,296.25 45.96,280.25 40.5,295.91 		"/>
		<polygon class="st12" points="37.12,275.88 37.75,293.96 42.51,275.93 		"/>
		<polygon class="st12" points="23.22,296.25 24.63,293.23 27.43,296.25 28.67,296.25 31.79,275.6 20.5,275.72 20.5,296.25 		"/>
		<polygon class="st12" points="9.71,296.25 11.46,293.96 14.67,278.62 8.25,282.65 8.25,296.25 		"/>
	</g>
	<path class="st1" d="M124.13,291.02c0-0.24-2.06,0.12-4.59,0.12c-2.54,0-4.6-0.36-4.6-0.12c0,0.24,2.06,1,4.6,1
		C122.07,292.01,124.13,291.26,124.13,291.02z"/>
	<path class="st1" d="M98.99,283.91c0-0.24-2.06,0.12-4.59,0.12c-2.54,0-4.6-0.36-4.6-0.12s2.06,1,4.6,1
		C96.93,284.9,98.99,284.15,98.99,283.91z"/>
	<path class="st1" d="M92.54,288.18c0-0.24-2.06,0.12-4.59,0.12c-2.54,0-4.6-0.36-4.6-0.12c0,0.24,2.06,1,4.6,1
		C90.48,289.18,92.54,288.42,92.54,288.18z"/>
	<path class="st1" d="M112.78,287.38c0-0.24-2.06,0.12-4.59,0.12c-2.54,0-4.6-0.36-4.6-0.12c0,0.24,2.06,1,4.6,1
		C110.72,288.37,112.78,287.62,112.78,287.38z"/>
	<path class="st1" d="M103.59,292.64c0-0.24-2.06,0.12-4.6,0.12c-2.54,0-4.6-0.36-4.6-0.12c0,0.24,2.06,1,4.6,1
		C101.53,293.63,103.59,292.88,103.59,292.64z"/>
	<path class="st1" d="M130.1,280.68c0-0.24-2.06,0.12-4.6,0.12c-2.54,0-4.6-0.36-4.6-0.12c0,0.24,2.06,1,4.6,1
		C128.04,281.68,130.1,280.92,130.1,280.68z"/>
	<path class="st1" d="M145.83,269.37c0-0.24-2.06,0.12-4.59,0.12c-2.54,0-4.6-0.36-4.6-0.12c0,0.24,2.06,1,4.6,1
		C143.77,270.36,145.83,269.61,145.83,269.37z"/>
	<path class="st1" d="M149.21,274.74c0-0.24-2.06,0.12-4.6,0.12c-2.54,0-4.6-0.36-4.6-0.12c0,0.24,2.06,1,4.6,1
		C147.15,275.74,149.21,274.98,149.21,274.74z"/>
	<path class="st1" d="M131.37,274.2c0-0.24-2.06,0.12-4.59,0.12c-2.54,0-4.6-0.36-4.6-0.12c0,0.24,2.06,1,4.6,1
		C129.31,275.2,131.37,274.44,131.37,274.2z"/>
	<path class="st1" d="M81.52,291.56c0-0.24-2.06,0.12-4.59,0.12c-2.54,0-4.6-0.36-4.6-0.12c0,0.24,2.06,1,4.6,1
		C79.47,292.55,81.52,291.8,81.52,291.56z"/>
	<path class="st1" d="M116.24,283.91c0-0.24-2.06,0.12-4.59,0.12c-2.54,0-4.6-0.36-4.6-0.12s2.06,1,4.6,1
		C114.18,284.9,116.24,284.15,116.24,283.91z"/>
	<path class="st1" d="M130.1,286.06c0-0.24-2.06,0.12-4.6,0.12c-2.54,0-4.6-0.36-4.6-0.12c0,0.24,2.06,1,4.6,1
		C128.04,287.06,130.1,286.31,130.1,286.06z"/>
	<path class="st1" d="M137.75,289.44c0-0.24-2.06,0.12-4.59,0.12c-2.54,0-4.6-0.36-4.6-0.12c0,0.24,2.06,1,4.6,1
		C135.69,290.43,137.75,289.68,137.75,289.44z"/>
	<g>
		<polygon class="st9" points="93.43,254.75 67.5,260 54,223.22 68.68,218.26 85.25,222.62 		"/>
		<polygon class="st1" points="93.43,254.75 68.04,256.3 54,223.22 68.68,218.26 85.25,222.62 		"/>
		<polygon class="st0" points="68.04,256.3 82.75,255.4 78,238.62 71.51,244.35 64.96,232.25 61.5,237.88 		"/>
		<path class="st4" d="M88.72,236.26l0.95-5.92L88,226.81l1.67-4.56c0,0-3,0.08-3,0S86,215.08,86,215.08l-3.5,3.88l-0.92-7.62
			l-3.92,3.25l-2.5-4.33l-3.58,3.25l-2.92-6.23L64.96,212l-2.21-6.58l-5,5.75L54,206.25l-3.25,5.83l1.25,8.75l8.08,4.16l6.58-3.17
			l2.67,2.25l3.08-1.67l5.58,4l5,1.83L88.72,236.26z"/>
		<polygon class="st0" points="85.38,247.67 85.88,241.67 90.48,254.93 87.93,255.09 		"/>
	</g>
	<path class="st1" d="M145.83,280.14c0-0.24-2.06,0.12-4.59,0.12c-2.54,0-4.6-0.36-4.6-0.12c0,0.24,2.06,1,4.6,1
		C143.77,281.14,145.83,280.38,145.83,280.14z"/>
	<path class="st1" d="M144.62,283.16c0-0.24-2.06,0.12-4.59,0.12c-2.54,0-4.6-0.36-4.6-0.12c0,0.24,2.06,1,4.6,1
		C142.56,284.16,144.62,283.4,144.62,283.16z"/>
	<path class="st1" d="M148.1,292.1c0-0.24-2.06,0.12-4.59,0.12c-2.54,0-4.6-0.36-4.6-0.12c0,0.24,2.06,1,4.6,1
		C146.04,293.09,148.1,292.34,148.1,292.1z"/>
	<path class="st1" d="M65.43,289.98c0-0.24-2.06,0.12-4.59,0.12c-2.54,0-4.6-0.36-4.6-0.12c0,0.24,2.06,1,4.6,1
		C63.37,290.97,65.43,290.22,65.43,289.98z"/>
	<path class="st1" d="M81.32,285.38c0-0.24-2.06,0.12-4.59,0.12c-2.54,0-4.6-0.36-4.6-0.12c0,0.24,2.06,1,4.6,1
		C79.26,286.37,81.32,285.62,81.32,285.38z"/>
	<path class="st1" d="M92.54,272.35c0-0.24-2.06,0.12-4.59,0.12c-2.54,0-4.6-0.36-4.6-0.12c0,0.24,2.06,1,4.6,1
		C90.48,273.35,92.54,272.59,92.54,272.35z"/>
	<path class="st1" d="M116.24,272.35c0-0.24-2.06,0.12-4.59,0.12c-2.54,0-4.6-0.36-4.6-0.12c0,0.24,2.06,1,4.6,1
		C114.18,273.35,116.24,272.59,116.24,272.35z"/>
	<path class="st1" d="M131.37,266.11c0-0.24-2.06,0.12-4.59,0.12c-2.54,0-4.6-0.36-4.6-0.12c0,0.24,2.06,1,4.6,1
		C129.31,267.1,131.37,266.35,131.37,266.11z"/>
	<path class="st1" d="M104.04,264.07c0-0.24-2.06,0.12-4.59,0.12c-2.54,0-4.6-0.36-4.6-0.12c0,0.24,2.06,1,4.6,1
		C101.99,265.06,104.04,264.31,104.04,264.07z"/>
	<path class="st1" d="M145.83,258.43c0-0.24-2.06,0.12-4.59,0.12c-2.54,0-4.6-0.36-4.6-0.12c0,0.24,2.06,1,4.6,1
		C143.77,259.42,145.83,258.67,145.83,258.43z"/>
	<path class="st1" d="M117.37,279.39c0-0.24-2.06,0.12-4.59,0.12c-2.54,0-4.6-0.36-4.6-0.12c0,0.24,2.06,1,4.6,1
		C115.32,280.39,117.37,279.63,117.37,279.39z"/>
	<path class="st1" d="M94.85,279.39c0-0.24-2.06,0.12-4.6,0.12c-2.54,0-4.6-0.36-4.6-0.12c0,0.24,2.06,1,4.6,1
		C92.79,280.39,94.85,279.63,94.85,279.39z"/>
	<g>
		<polygon class="st9" points="70.25,265.83 68.04,256.3 58,218.96 26.15,207.27 34.67,271.44 		"/>
		<polygon class="st1" points="70.25,264.52 68.04,256.3 58,218.96 26.15,207.27 31.79,263.86 		"/>
		<polygon class="st5" points="64.96,244.85 64.96,235.11 63.33,230.12 62.75,223.75 60.25,218.96 59.38,210.88 56.79,215.12 
			54.88,206.75 52.75,212.5 49.5,204.38 46.21,208.25 43.66,200.62 41.12,206.23 37.83,195.25 32.75,201 33.54,211.34 55.62,218.96 
					"/>
		<polygon class="st0" points="45.14,264.09 49.5,264.09 37.83,229.25 		"/>
		<polygon class="st0" points="52.75,264.22 52.75,242.5 56.5,245.66 60.83,264.22 		"/>
		<polygon class="st0" points="63.33,252.17 65.08,264.44 67.5,264.52 		"/>
		<polygon class="st0" points="57.25,231.42 61.5,241.92 59.38,246.67 		"/>
		<polygon class="st0" points="41.67,225 50.75,230 48.2,246.25 		"/>
	</g>
	<path class="st1" d="M107.05,276.12c0-0.24-2.06,0.12-4.59,0.12c-2.54,0-4.6-0.36-4.6-0.12c0,0.24,2.06,1,4.6,1
		C104.99,277.12,107.05,276.36,107.05,276.12z"/>
	<g>
		<polygon class="st9" points="6.75,177.5 34,199.33 48.2,277.04 6.75,281.39 		"/>
		<polygon class="st1" points="6.75,177.5 34,199.33 47.1,275.53 6.75,276.12 		"/>
		<polygon class="st10" points="42.51,248.8 42.51,232 40.25,226.81 39.25,216 37.75,213.75 37.75,200.71 35.5,200.71 34.5,188.09 
			33,192.5 31.75,181.5 28.5,188.09 25.25,175.14 23.25,183.18 20.5,172.5 17.5,180 13.5,169 9.75,175.14 6.75,165.75 6.75,177.5 
			30.58,198.98 		"/>
		<polygon class="st0" points="37.12,275.68 37.75,247.67 42.51,275.6 		"/>
		<polygon class="st0" points="20.5,275.92 20.5,235.11 24.63,248.8 28.5,242.33 31.79,276.12 		"/>
		<polygon class="st0" points="8.25,241.17 8.25,265.18 14.67,271.44 11.46,247.67 		"/>
		<path class="st0" d="M13.5,218.96c-0.5,0.71-2.04,11.71-2.04,11.71l4.71,13.5v-14.64L13.5,218.96z"/>
		<polygon class="st0" points="20.5,207.27 21.88,220.17 24.63,229.25 25.25,218.26 		"/>
		<polygon class="st0" points="30.58,207.27 33,239.17 36.5,237 		"/>
		<polygon class="st0" points="6.75,189.83 13.81,196.67 17.5,213.75 11.46,200.71 6.75,222.62 		"/>
	</g>
	<circle class="st1" cx="79.92" cy="178.5" r="18.36"/>
	<circle class="st2" cx="79.92" cy="178.5" r="8.64"/>
</g>
<g>
	<rect x="300.75" y="300.75" class="st1" width="142.5" height="142.5"/>
	<polygon class="st6" points="358.58,372.75 373.12,365.25 376.73,366.25 385.45,361.75 387.66,363.75 389.84,362.75 391.29,363.5 
		395.64,360.25 400.59,355.25 406.31,357.5 407.13,359.75 413.11,353.5 416,353.5 419.75,351 424,351 428.25,353 433.75,351 
		439.75,353.25 443.25,356 443.25,407.33 	"/>
	<polygon class="st8" points="300.75,373.33 300.75,443.25 443.25,443.25 443.25,389.62 380.3,378.75 359.94,366.67 354.96,363 
		349.33,363 346.76,354 338.44,350.33 338.44,353.67 327.85,351.67 322.35,343 314,341.33 312.29,345.67 305.33,349.67 
		300.75,354.67 	"/>
	<path class="st13" d="M443.25,415.17c-25.22-1.46-98.67-22.92-142.5-19.41v47.48h142.5V415.17z"/>
	<polygon class="st13" points="300.75,365 303.25,359.75 304.75,363.25 305.75,356.38 309.75,364.38 311.25,372 307.5,372 
		310,387.5 300.75,391.12 	"/>
	<polygon class="st13" points="311.25,355.88 311.88,360.38 313.75,360.38 313.12,356.38 	"/>
	<polygon class="st13" points="314.38,380.38 318,370.62 317.38,366.62 320.12,365.5 321.88,370.5 325.12,382.75 	"/>
	<polygon class="st13" points="318.62,352.62 319.75,347.5 320.88,351 320.88,353.88 	"/>
	<polygon class="st13" points="315.75,347.5 314.88,351 316.5,351.75 316.5,348.25 	"/>
	<polygon class="st13" points="306,350.69 308.38,353.12 312.5,348 	"/>
	<path class="st5" d="M434.38,355.5c-0.48-0.45-2.09-0.37-2.63,0c-0.83,0.57-1.18,2.79-1.48,3.75c-0.83,2.61-1.58,8.09-2.58,10.63
		c-1.25,3.18-4.57,9.23-6.68,11.92c-0.2,0.25-0.94,0.88-0.94,0.88s0.81-30.93,1.13-43.94c0.04-1.53-1.19-6.74-3.33-7.9
		c-0.52-0.28-1.81,0.1-2.35,0.35c-0.59,0.28-1.59,1.21-1.94,1.76c-0.77,1.22-1.41,4.1-1.67,5.51c-1.9,10.3-2.61,31.33-2.98,41.8
		c-0.01,0.39,0,1.17,0,1.57c0.02,3.15,0.16,12.61,0.16,12.61s-0.93-3.84-1.22-5.12c-0.75-3.29-1.25-10.22-2.84-13.19
		c-0.42-0.79-1.67-2.21-2.49-2.56c-0.42-0.18-1.44-0.24-1.83,0c-0.57,0.34-1.12,1.71-1.25,2.36c-0.66,3.3,0.32,10.17,1.28,13.39
		c0.88,2.92,3.1,9.21,5.72,10.78c0.58,0.35,2.71,0,2.71,0s-1.78,21.92,0.36,28.79c0.28,0.9,1.29,2.66,2.11,3.15
		c1.77,1.05,6.29,1.58,8.19,0.79c0.71-0.29,1.62-1.97,1.68-2.56c0.05-0.59-1.51-17.56-1.68-23.43c-0.06-2.09,0.17-19.69,0.17-19.69
		s1.1,1.5,1.67,1.61c1.52,0.29,4.6-1.29,5.75-2.33c1.98-1.79,4.17-6.88,4.97-9.42c1.35-4.27,2.13-13.29,2.26-17.77
		C434.66,358.31,435.06,356.14,434.38,355.5z"/>
	<circle class="st2" cx="397.96" cy="321.5" r="9.23"/>
</g>
<g>
	<rect x="6.75" y="300.75" class="st12" width="142.5" height="142.5"/>
	<polygon class="st6" points="149.25,325.05 148.57,325.52 141.32,323.2 129.93,330.5 122.17,323.2 115.7,323.2 111.3,330.5 
		100.95,330.5 95.26,325.52 79.73,324.86 76.63,328.84 62.14,323.2 58,325.86 53.08,323.2 42.73,323.2 30.57,327.51 12.2,324.86 
		10.39,333.15 6.75,335.81 6.75,443.25 149.25,443.25 	"/>
	<polygon class="st8" points="149,345 124.13,356.38 99.45,355.88 93.43,341.33 76.72,341.33 76.72,347.5 67.5,360.38 52.75,365.5 
		37.83,353.88 37.12,344.5 33.54,339 6.75,341.33 6.75,383.23 6.75,443.25 149.25,443.25 	"/>
	<polygon class="st13" points="37.12,344.5 17.5,349 32.75,349 31.79,354.75 37.83,354.75 39.82,358.75 14.67,361 45.96,363.68 
		52.75,365.5 37.83,353.88 	"/>
	<polygon class="st13" points="94.39,343.67 87,344.5 93.43,346 94.39,348.33 80.33,350.33 96.33,350.33 98.17,352.78 86.17,355 
		89.25,357.33 90.5,355.83 99.45,355.88 	"/>
	<path class="st13" d="M149.01,350.5c0,0-9.72,1.75-8.99,1.75c0.73,0,8.99,2.75,8.99,2.75l-16.76,2.33l16.76,1.67V350.5z"/>
	<polygon class="st13" points="61.75,365.5 76.72,362 90.26,363.75 	"/>
	<polygon class="st13" points="103.59,359 120.91,359 122.18,360.25 	"/>
	<polygon class="st13" points="6.75,372 52.75,374.5 37.12,376.75 54,376 54,378.25 64.96,375.12 80.33,375.12 72.12,377.25 
		92.54,376.25 85.66,378.25 111.65,375.12 128.55,373.25 127,375.12 80.33,382 79.25,378.5 64.96,381 64.96,379.25 49.5,382 
		49.19,378.5 33.71,379.75 25,377 6.75,377 	"/>
	<polygon class="st13" points="43.66,383.23 31.79,386.25 56.24,386.25 6.75,391.12 6.75,383.23 	"/>
	<path class="st0" d="M122.18,391.12v-5.46c0,0-15.99,1.12-28.75,2.73C80.67,390,67.97,392,67.65,397c-0.32,5,29.59,5.33,34.8,5.67
		c5.21,0.33,17.12,1.67,17.08,6C119.49,413,13.5,419.29,6.75,419.31c0,5.02,0,23.94,0,23.94H47.1c0,0,93.49-7.33,93.53-28.79
		c0.04-21.46-54.65-15.7-54.97-19.08C85.33,392,122.18,391.12,122.18,391.12z"/>
	<polygon class="st8" points="118.17,402.83 116.83,400.33 106.33,400.33 102,399 98.33,399 87.33,397.5 80.33,397.5 70.83,397.5 
		61.75,396.5 68.5,405.67 105.67,409.83 116.83,407.5 	"/>
	<polygon class="st13" points="6.75,416.83 32.17,415.33 33.71,412.17 48.83,414.46 55.17,410.67 70.17,413.75 93.83,412.33 
		95.17,408 97.67,412.42 99.45,408 105.75,411.8 119.53,408.67 118.17,402.83 112.88,405.67 109.17,409 101.33,405.83 105.5,404.33 
		86.33,404.33 91.67,408.33 71.83,411.67 56.24,408.67 43,408.17 50.17,409.83 45,409.83 48.83,412.17 30.67,409.83 6.75,409.83 	
		"/>
	<polygon class="st13" points="121,383.23 122.18,387.33 122.18,391.12 135.83,391.83 132.25,389.83 146.17,389.67 128.55,385.67 
		149.01,385.67 146.67,382 140.63,382 135.83,380.83 127.67,383.23 123.5,383.23 	"/>
</g>
<g>
	<rect x="153.75" y="300.75" class="st8" width="142.5" height="142.5"/>
	<g>
		<polygon class="st7" points="153.75,355.84 168.5,348.32 181.5,352.08 197,329.84 211.5,348.32 225,317.12 244,345.74 255,328.29 
			261,336.48 266,334.21 278.5,350.83 287.5,345.74 296.25,354.56 296.25,403.17 153.75,403.17 		"/>
		<polygon class="st8" points="197,329.84 197,332.56 198.67,333.13 197.83,334.66 200.31,334.07 197.58,336.31 201.44,335.5 
			197.83,339.15 202.55,336.91 198.33,342.17 204.05,338.82 199.33,345.74 204.83,341.09 200.5,350.25 206.83,343.59 201.33,358.12 
			208.75,346.09 202,370.67 211.5,348.32 		"/>
		<polygon class="st2" points="153.75,355.84 166.08,349.55 166.08,355.84 		"/>
		<polygon class="st2" points="182.55,350.57 196.01,331.26 197,348.32 194.5,354.56 191.5,345.74 		"/>
		<polygon class="st2" points="223.86,319.75 211.5,348.32 218.25,343.92 225,351.15 229.25,345.74 		"/>
		<polygon class="st2" points="253.76,330.26 244,345.74 239.33,354.56 249,348.99 259.83,355.84 264.83,336.94 254.33,342.91 		"/>
		<polygon class="st2" points="285.91,346.64 278.5,350.83 272.67,355.84 285.91,353.31 		"/>
		<polygon class="st8" points="225,317.12 225,320.53 226.5,320.53 225,322.92 228.58,322.52 226.12,325.99 229.92,324.53 
			226.38,328.29 231.7,327.2 227.75,332.13 233.45,329.84 228.38,335.45 233.45,332.13 229.25,338.44 235.12,335.45 230.33,342 
			237.12,338.27 231.67,347.25 239.33,340.92 232.33,355.88 242.12,344.84 231.67,365.5 241.75,349.99 244,345.74 		"/>
		<polygon class="st8" points="255,328.29 255,330.6 256.44,330.26 255,332.64 257.28,331.4 255,334.69 258,333.5 255,337.76 
			259.12,335.45 255,341.26 261,336.48 		"/>
		<polygon class="st8" points="266,334.21 266,337.08 267.25,337.08 265.38,339.47 268.25,338.36 264.83,342.62 269.75,340.23 
			264.83,345.61 271.75,343.05 267.5,347.14 274.43,345.41 263.88,352.68 276.39,348.03 271.12,352.68 278.5,350.83 		"/>
		<polygon class="st8" points="287.5,345.74 287.5,347.74 289.48,347.74 287.5,350.21 291.94,350.21 287.5,354.22 294.39,352.68 
			288.75,358.99 296.25,358.99 296.25,354.56 		"/>
	</g>
	<path class="st3" d="M296.25,345.08c-13.79,0.41-26.95,5.5-41.91,14.45c-34.41,20.58-82.44,48.67-100.59,62.12v21.59h142.5V345.08z
		"/>
	<path class="st3" d="M194,355.14c-14.93-8.97-28.39-12.19-40.25-11.48v99.59h142.5C296.25,443.25,231.11,377.44,194,355.14z"/>
	<path class="st5" d="M296.25,373.34c-13.79,0.29-26.95,3.92-41.91,10.29c-34.41,14.66-82.44,34.66-100.59,44.24v15.38h142.5V373.34
		z"/>
	<path class="st5" d="M194,380.5c-14.93-6.39-28.39-8.68-40.25-8.18v70.92h142.5C296.25,443.25,231.11,396.38,194,380.5z"/>
	<path class="st12" d="M296.25,443.25h-142.5c0,0,54.25-30.13,68-68.22c0.54-1.49,5.96-1.49,6.5,0
		C241.25,410.89,296.25,443.25,296.25,443.25z"/>
	<polygon class="st10" points="188.47,381.52 183.49,374.64 190.04,379.3 185.69,372.9 187.77,374.21 183.64,369.24 189.37,371.6 
		183.33,365.94 183.28,364.68 188.54,368.54 183.07,361.15 187.17,362.32 183,357.9 182.98,355.73 186.18,357.75 182.88,352.8 
		182.87,352.48 185.1,353.89 182.86,350.52 184.26,351.32 182.76,349.2 182.73,348.37 184.16,350.13 182.64,345.74 180.96,350.09 
		182.59,348.27 182.58,349.03 180.93,351.58 182.43,350.53 180.06,353.97 182.51,352.43 182.51,352.75 178.98,357.89 182.45,355.69 
		182.44,356.16 178.04,362.77 182.31,359.72 176.65,368.89 182.27,364.65 182.25,365.88 175.89,372.68 181.94,369.32 177.41,374.43 
		181.94,372.1 175.06,379.1 180.91,375.77 176.73,381.98 179.99,379.84 175.57,386.7 181.92,382.22 181.83,387.17 184.05,387.17 
		183.88,382.21 189.74,385.5 185.71,379.84 	"/>
	<polygon class="st10" points="293.76,402.28 282.93,387.38 292.91,395.8 283.11,381.73 283.1,381.54 289.02,385.51 283.97,377.23 
		293.19,381.86 282.76,372.87 282.7,371.26 289.67,373.73 282.53,366.98 282.49,365.91 288.01,370.06 282.25,359.97 282.22,359.1 
		287.85,362.26 282.04,354.65 282.01,354 286.3,356.41 282.17,351 284.08,352.03 281.82,349.12 281.75,347.38 283.91,349.66 
		281.68,344.12 281.63,344.23 281.62,344.18 281.62,344.24 279.2,349.59 281.55,347.36 281.51,349.08 279.08,352.11 281.35,350.88 
		276.84,356.37 281.4,354 281.38,354.79 275.28,362.23 281.28,359.09 281.26,360.07 275.07,369.91 281.13,365.8 281.1,367.16 
		273.4,375.05 281,371.34 280.96,372.92 270,382.25 280.41,377 274.2,386.02 280.77,381.39 280.76,381.64 270.15,395.55 
		280.49,389.25 269.37,402.4 280.41,396.38 270.94,406.82 280.3,401.9 280.11,409.88 284.23,409.88 283.92,402.21 292.18,406.81 
		282.93,394.75 	"/>
	<polygon class="st10" points="164.95,402.04 164.78,410.52 168.37,410.52 168.09,402.29 175.49,407.12 167.81,396.19 
		175.06,402.77 168.03,389.82 174.23,393.98 167.45,383.26 167.41,382.24 172.7,386.39 167.18,377 174.21,381.67 167.08,372.28 
		167.05,371.6 173.27,374.17 166.9,367.14 166.61,363.71 171.8,370.37 166.65,359.83 166.63,358.99 171.66,362.29 166.47,354.33 
		166.45,353.7 170.28,356.22 166.62,350.6 168.32,351.67 166.27,348.61 166.21,346.81 168.16,349.22 166.18,343.48 166.11,343.67 
		166.1,343.48 166.1,343.7 163.99,349.15 166.03,346.88 166,348.68 163.89,351.75 165.89,350.48 161.89,356.17 165.9,353.74 
		165.88,354.59 160.51,362.25 165.79,359.03 165.77,361.8 160.32,370.22 165.66,365.98 165.63,367.41 158.84,375.55 165.54,371.72 
		165.54,372.03 158.01,381.23 164.24,378.09 159.56,386.92 165.34,382.15 165.32,382.96 157.75,393.97 165.41,389.54 157.12,402.19 
		164.34,396.94 156.67,407.13 	"/>
	<polygon class="st1" points="219.38,443.25 231.25,443.25 224.52,374.12 	"/>
</g>
</svg>
