<svg xmlns="http://www.w3.org/2000/svg" xmlns:xlink="http://www.w3.org/1999/xlink" width="300" zoomAndPan="magnify" viewBox="0 0 224.87999 74.999997" height="100" preserveAspectRatio="xMidYMid meet" version="1.0"><defs><g/></defs><g fill="#000000" fill-opacity="1"><g transform="translate(31.935312, 48.339706)"><g><path d="M 10.453125 -14.21875 C 12.304688 -14.21875 13.234375 -13.75 13.234375 -12.8125 C 13.234375 -11.726562 12.171875 -11.1875 10.046875 -11.1875 C 9.578125 -11.1875 9.066406 -11.273438 8.515625 -11.453125 C 7.898438 -11.023438 7.425781 -10.488281 7.09375 -9.84375 C 6.757812 -9.207031 6.59375 -8.289062 6.59375 -7.09375 C 6.59375 -5.894531 7.066406 -5.007812 8.015625 -4.4375 C 8.960938 -3.863281 10.078125 -3.578125 11.359375 -3.578125 C 12.648438 -3.578125 13.691406 -3.78125 14.484375 -4.1875 C 15.285156 -4.601562 15.984375 -5.054688 16.578125 -5.546875 C 17.171875 -6.035156 17.65625 -6.488281 18.03125 -6.90625 C 18.40625 -7.320312 18.675781 -7.53125 18.84375 -7.53125 C 19.019531 -7.53125 19.160156 -7.414062 19.265625 -7.1875 C 19.367188 -6.96875 19.421875 -6.675781 19.421875 -6.3125 C 19.421875 -4.613281 18.476562 -3.117188 16.59375 -1.828125 C 14.71875 -0.546875 12.472656 0.09375 9.859375 0.09375 C 5.773438 0.09375 3.125 -1.082031 1.90625 -3.4375 C 1.488281 -4.269531 1.28125 -5.269531 1.28125 -6.4375 C 1.28125 -9.476562 2.800781 -11.601562 5.84375 -12.8125 C 4.289062 -13.90625 3.515625 -15.546875 3.515625 -17.734375 C 3.515625 -18.773438 3.800781 -19.742188 4.375 -20.640625 C 3.84375 -21.234375 3.410156 -21.859375 3.078125 -22.515625 C 2.742188 -23.171875 2.578125 -23.671875 2.578125 -24.015625 C 2.578125 -24.609375 2.789062 -24.90625 3.21875 -24.90625 C 3.519531 -24.90625 3.882812 -24.675781 4.3125 -24.21875 C 4.75 -23.757812 5.101562 -23.390625 5.375 -23.109375 C 5.65625 -22.835938 5.945312 -22.617188 6.25 -22.453125 C 8.0625 -23.554688 10.1875 -24.109375 12.625 -24.109375 C 15.070312 -24.109375 16.703125 -23.425781 17.515625 -22.0625 C 17.804688 -21.550781 17.953125 -20.925781 17.953125 -20.1875 C 17.953125 -19.0625 17.460938 -18.113281 16.484375 -17.34375 C 15.503906 -16.582031 14.21875 -16.203125 12.625 -16.203125 C 11.03125 -16.203125 9.539062 -16.710938 8.15625 -17.734375 C 8.132812 -17.648438 8.125 -17.5625 8.125 -17.46875 L 8.125 -16.78125 C 8.125 -16.394531 8.242188 -15.941406 8.484375 -15.421875 C 8.734375 -14.898438 9.039062 -14.46875 9.40625 -14.125 C 9.726562 -14.1875 10.078125 -14.21875 10.453125 -14.21875 Z M 14.421875 -19.703125 C 14.421875 -20.535156 13.738281 -20.953125 12.375 -20.953125 C 11.007812 -20.953125 9.914062 -20.535156 9.09375 -19.703125 C 10.238281 -19.003906 11.410156 -18.65625 12.609375 -18.65625 C 13.816406 -18.65625 14.421875 -19.003906 14.421875 -19.703125 Z M 14.421875 -19.703125 "/></g></g></g><g fill="#000000" fill-opacity="1"><g transform="translate(48.804237, 48.339706)"><g><path d="M 6 -14.03125 C 6 -12.601562 5.742188 -10.988281 5.234375 -9.1875 C 5.273438 -8.5 5.296875 -7.835938 5.296875 -7.203125 C 5.296875 -6.566406 5.335938 -6.015625 5.421875 -5.546875 C 5.742188 -4.691406 6.148438 -4.171875 6.640625 -3.984375 C 7.054688 -3.984375 7.519531 -4.347656 8.03125 -5.078125 C 8.539062 -5.816406 9.0625 -6.695312 9.59375 -7.71875 C 9.34375 -8.695312 9.21875 -9.617188 9.21875 -10.484375 C 9.21875 -12.015625 9.453125 -13.132812 9.921875 -13.84375 C 10.492188 -14.738281 11.363281 -15.1875 12.53125 -15.1875 C 13.695312 -15.1875 14.472656 -14.738281 14.859375 -13.84375 C 15.003906 -13.5 15.078125 -13.113281 15.078125 -12.6875 C 15.078125 -11.925781 14.882812 -11.144531 14.5 -10.34375 C 14.125 -9.550781 13.507812 -8.503906 12.65625 -7.203125 C 13.039062 -6.078125 13.613281 -5.515625 14.375 -5.515625 C 15.3125 -5.535156 16.125 -5.863281 16.8125 -6.5 C 17.0625 -6.757812 17.273438 -6.984375 17.453125 -7.171875 C 17.640625 -7.367188 17.828125 -7.46875 18.015625 -7.46875 C 18.316406 -7.46875 18.46875 -7.113281 18.46875 -6.40625 C 18.46875 -5.09375 18.085938 -4.128906 17.328125 -3.515625 C 16.578125 -2.910156 15.628906 -2.609375 14.484375 -2.609375 C 12.972656 -2.609375 11.769531 -3.269531 10.875 -4.59375 C 8.382812 -1.363281 6.300781 0.25 4.625 0.25 C 3.96875 0.25 3.316406 -0.679688 2.671875 -2.546875 C 2.035156 -4.421875 1.550781 -6.953125 1.21875 -10.140625 C 0.957031 -12.160156 1.101562 -13.609375 1.65625 -14.484375 C 2.125 -15.160156 3.039062 -15.5 4.40625 -15.5 C 4.914062 -15.5 5.304688 -15.34375 5.578125 -15.03125 C 5.859375 -14.726562 6 -14.394531 6 -14.03125 Z M 6 -14.03125 "/></g></g></g><g fill="#000000" fill-opacity="1"><g transform="translate(64.875952, 48.339706)"><g><path d="M 20.53125 -7.53125 C 20.914062 -7.53125 21.109375 -7.039062 21.109375 -6.0625 C 21.109375 -5.53125 20.882812 -4.882812 20.4375 -4.125 C 19.988281 -3.375 19.410156 -2.679688 18.703125 -2.046875 C 17.992188 -1.421875 17.203125 -0.90625 16.328125 -0.5 C 15.453125 -0.101562 14.601562 0.09375 13.78125 0.09375 C 12.65625 0.09375 11.898438 -0.894531 11.515625 -2.875 C 10.960938 -1.957031 10.238281 -1.207031 9.34375 -0.625 C 8.445312 -0.0390625 7.25 0.25 5.75 0.25 C 4.257812 0.25 3.054688 -0.210938 2.140625 -1.140625 C 1.222656 -2.078125 0.773438 -3.21875 0.796875 -4.5625 C 0.796875 -8.175781 2 -11.023438 4.40625 -13.109375 C 5.425781 -13.984375 6.375 -14.554688 7.25 -14.828125 C 8.132812 -15.109375 9.066406 -15.25 10.046875 -15.25 C 11.023438 -15.25 11.820312 -15.078125 12.4375 -14.734375 C 12.738281 -15.347656 13.078125 -15.65625 13.453125 -15.65625 C 14.203125 -15.65625 14.910156 -15.332031 15.578125 -14.6875 C 16.242188 -14.039062 16.578125 -13.429688 16.578125 -12.859375 C 16.285156 -12.148438 15.851562 -11.304688 15.28125 -10.328125 C 15.101562 -9.347656 15.015625 -7.976562 15.015625 -6.21875 C 15.015625 -4.457031 15.238281 -3.578125 15.6875 -3.578125 C 16.238281 -3.578125 17.578125 -4.679688 19.703125 -6.890625 C 20.085938 -7.316406 20.363281 -7.53125 20.53125 -7.53125 Z M 5.484375 -5.609375 C 5.484375 -3.972656 6.085938 -3.15625 7.296875 -3.15625 C 8.597656 -3.175781 9.675781 -3.867188 10.53125 -5.234375 C 10.820312 -5.703125 11.0625 -6.273438 11.25 -6.953125 C 11.25 -9.335938 11.460938 -11.378906 11.890625 -13.078125 C 10.171875 -12.734375 8.671875 -11.898438 7.390625 -10.578125 C 6.117188 -9.265625 5.484375 -7.609375 5.484375 -5.609375 Z M 5.484375 -5.609375 "/></g></g></g><g fill="#000000" fill-opacity="1"><g transform="translate(83.434954, 48.339706)"><g><path d="M 5.203125 -15.90625 C 5.960938 -15.90625 6.679688 -15.175781 7.359375 -13.71875 C 8.359375 -14.757812 9.597656 -15.28125 11.078125 -15.28125 C 12.554688 -15.28125 13.664062 -14.953125 14.40625 -14.296875 C 15.15625 -13.648438 15.53125 -12.738281 15.53125 -11.5625 C 15.53125 -10.382812 15.375 -9.1875 15.0625 -7.96875 C 14.757812 -6.757812 14.535156 -5.894531 14.390625 -5.375 C 14.253906 -4.851562 14.1875 -4.421875 14.1875 -4.078125 C 14.1875 -3.742188 14.304688 -3.578125 14.546875 -3.578125 C 14.859375 -3.578125 15.25 -3.773438 15.71875 -4.171875 C 16.1875 -4.578125 16.65625 -5.019531 17.125 -5.5 C 17.59375 -5.976562 18.019531 -6.421875 18.40625 -6.828125 C 18.800781 -7.234375 19.078125 -7.4375 19.234375 -7.4375 C 19.523438 -7.4375 19.671875 -7.070312 19.671875 -6.34375 C 19.671875 -4.851562 18.9375 -3.421875 17.46875 -2.046875 C 15.007812 -0.597656 13.4375 0.125 12.75 0.125 C 12.6875 0.125 12.644531 0.113281 12.625 0.09375 C 10.925781 0.09375 10.078125 -1.265625 10.078125 -3.984375 C 10.078125 -5.148438 10.1875 -6.222656 10.40625 -7.203125 C 10.632812 -8.179688 10.800781 -8.894531 10.90625 -9.34375 C 11.007812 -9.789062 11.0625 -10.25 11.0625 -10.71875 C 11.0625 -11.476562 10.617188 -11.859375 9.734375 -11.859375 C 8.859375 -11.859375 8.019531 -11.203125 7.21875 -9.890625 C 6.425781 -8.585938 5.890625 -7.238281 5.609375 -5.84375 L 5.609375 -5.609375 C 5.609375 -4.890625 5.71875 -4.144531 5.9375 -3.375 C 6.164062 -2.613281 6.28125 -2.082031 6.28125 -1.78125 C 6.28125 -1.0625 5.378906 -0.351562 3.578125 0.34375 C 3.296875 0.457031 3.050781 0.515625 2.84375 0.515625 C 2.3125 0.515625 1.941406 0.238281 1.734375 -0.3125 C 1.535156 -0.863281 1.4375 -1.726562 1.4375 -2.90625 C 1.4375 -5.925781 1.550781 -8.101562 1.78125 -9.4375 C 2.101562 -11.4375 2.828125 -13.296875 3.953125 -15.015625 C 4.335938 -15.609375 4.753906 -15.90625 5.203125 -15.90625 Z M 5.203125 -15.90625 "/></g></g></g><g fill="#000000" fill-opacity="1"><g transform="translate(100.558984, 48.339706)"><g/></g></g><g fill="#000000" fill-opacity="1"><g transform="translate(113.314309, 48.339706)"><g><path d="M 9.828125 -19.359375 C 8.953125 -19.890625 8.097656 -20.15625 7.265625 -20.15625 C 5.929688 -20.15625 4.46875 -19.941406 2.875 -19.515625 L 1.140625 -19.109375 C 0.628906 -18.972656 0.238281 -18.90625 -0.03125 -18.90625 C -0.664062 -18.90625 -0.984375 -19.140625 -0.984375 -19.609375 C -0.984375 -19.890625 -0.753906 -20.234375 -0.296875 -20.640625 C 0.148438 -21.054688 0.757812 -21.457031 1.53125 -21.84375 C 3.425781 -22.78125 5.476562 -23.25 7.6875 -23.25 C 10.851562 -23.25 12.882812 -22.707031 13.78125 -21.625 C 14.03125 -21.320312 14.15625 -20.90625 14.15625 -20.375 C 14.113281 -18.3125 13.160156 -12.828125 11.296875 -3.921875 C 13.796875 -4.941406 15.328125 -5.78125 15.890625 -6.4375 C 16.460938 -7.101562 16.90625 -7.4375 17.21875 -7.4375 C 17.539062 -7.4375 17.703125 -7.101562 17.703125 -6.4375 C 17.703125 -5.78125 17.503906 -5.207031 17.109375 -4.71875 C 16.710938 -4.226562 16.09375 -3.675781 15.25 -3.0625 C 14.414062 -2.445312 12.882812 -1.660156 10.65625 -0.703125 C 10.476562 0.148438 10.15625 1.097656 9.6875 2.140625 C 8.09375 6.535156 5.488281 8.734375 1.875 8.734375 C 0.113281 8.734375 -1.378906 8.347656 -2.609375 7.578125 C -3.847656 6.816406 -4.46875 5.640625 -4.46875 4.046875 C -4.46875 3.472656 -4.171875 2.929688 -3.578125 2.421875 C -2.992188 1.910156 -2.144531 1.375 -1.03125 0.8125 C 0.0820312 0.25 2.253906 -0.601562 5.484375 -1.75 C 5.609375 -2.5 5.710938 -3.195312 5.796875 -3.84375 C 5.890625 -4.488281 5.988281 -5.046875 6.09375 -5.515625 C 6.539062 -8.554688 7.421875 -12.140625 8.734375 -16.265625 C 9.117188 -17.429688 9.484375 -18.460938 9.828125 -19.359375 Z M -0.25 5.734375 C 0.382812 6.078125 0.988281 6.253906 1.5625 6.265625 C 2.132812 6.273438 2.566406 6.144531 2.859375 5.875 C 3.160156 5.613281 3.488281 5.1875 3.84375 4.59375 C 4.195312 4 4.539062 2.957031 4.875 1.46875 C 3.769531 1.851562 2.828125 2.171875 2.046875 2.421875 C 1.273438 2.679688 0.648438 2.914062 0.171875 3.125 C -0.304688 3.332031 -0.65625 3.53125 -0.875 3.71875 C -1.101562 3.914062 -1.21875 4.15625 -1.21875 4.4375 C -1.21875 4.96875 -0.894531 5.398438 -0.25 5.734375 Z M -0.25 5.734375 "/></g></g></g><g fill="#000000" fill-opacity="1"><g transform="translate(128.301816, 48.339706)"><g><path d="M 8.390625 -3.46875 C 10.046875 -3.46875 11.648438 -4.128906 13.203125 -5.453125 C 13.773438 -5.941406 14.238281 -6.394531 14.59375 -6.8125 C 14.957031 -7.226562 15.238281 -7.4375 15.4375 -7.4375 C 15.726562 -7.4375 15.875 -7.132812 15.875 -6.53125 C 15.875 -5.9375 15.710938 -5.269531 15.390625 -4.53125 C 15.078125 -3.800781 14.550781 -3.085938 13.8125 -2.390625 C 11.976562 -0.671875 9.46875 0.1875 6.28125 0.1875 C 3.75 0.1875 2.023438 -0.722656 1.109375 -2.546875 C 0.796875 -3.191406 0.640625 -4.109375 0.640625 -5.296875 C 0.640625 -6.484375 0.875 -7.71875 1.34375 -9 C 1.8125 -10.289062 2.429688 -11.40625 3.203125 -12.34375 C 3.984375 -13.28125 4.882812 -14.007812 5.90625 -14.53125 C 6.925781 -15.050781 8.015625 -15.3125 9.171875 -15.3125 C 10.328125 -15.3125 11.21875 -15.019531 11.84375 -14.4375 C 12.46875 -13.863281 12.78125 -13.117188 12.78125 -12.203125 C 12.78125 -11.296875 12.550781 -10.550781 12.09375 -9.96875 C 11.644531 -9.382812 11.054688 -8.894531 10.328125 -8.5 C 9.609375 -8.101562 8.804688 -7.75 7.921875 -7.4375 C 7.035156 -7.132812 6.171875 -6.789062 5.328125 -6.40625 L 5.328125 -5.609375 C 5.347656 -4.847656 5.664062 -4.304688 6.28125 -3.984375 C 6.894531 -3.671875 7.597656 -3.5 8.390625 -3.46875 Z M 7.84375 -12.46875 C 6.738281 -12.46875 5.972656 -11.179688 5.546875 -8.609375 C 5.992188 -8.910156 6.414062 -9.175781 6.8125 -9.40625 C 7.207031 -9.644531 7.550781 -9.867188 7.84375 -10.078125 C 8.476562 -10.546875 8.804688 -11.078125 8.828125 -11.671875 C 8.828125 -12.203125 8.5 -12.46875 7.84375 -12.46875 Z M 7.84375 -12.46875 "/></g></g></g><g fill="#000000" fill-opacity="1"><g transform="translate(141.63114, 48.339706)"><g><path d="M 5.203125 -15.90625 C 5.960938 -15.90625 6.679688 -15.175781 7.359375 -13.71875 C 8.359375 -14.757812 9.597656 -15.28125 11.078125 -15.28125 C 12.554688 -15.28125 13.664062 -14.953125 14.40625 -14.296875 C 15.15625 -13.648438 15.53125 -12.738281 15.53125 -11.5625 C 15.53125 -10.382812 15.375 -9.1875 15.0625 -7.96875 C 14.757812 -6.757812 14.535156 -5.894531 14.390625 -5.375 C 14.253906 -4.851562 14.1875 -4.421875 14.1875 -4.078125 C 14.1875 -3.742188 14.304688 -3.578125 14.546875 -3.578125 C 14.859375 -3.578125 15.25 -3.773438 15.71875 -4.171875 C 16.1875 -4.578125 16.65625 -5.019531 17.125 -5.5 C 17.59375 -5.976562 18.019531 -6.421875 18.40625 -6.828125 C 18.800781 -7.234375 19.078125 -7.4375 19.234375 -7.4375 C 19.523438 -7.4375 19.671875 -7.070312 19.671875 -6.34375 C 19.671875 -4.851562 18.9375 -3.421875 17.46875 -2.046875 C 15.007812 -0.597656 13.4375 0.125 12.75 0.125 C 12.6875 0.125 12.644531 0.113281 12.625 0.09375 C 10.925781 0.09375 10.078125 -1.265625 10.078125 -3.984375 C 10.078125 -5.148438 10.1875 -6.222656 10.40625 -7.203125 C 10.632812 -8.179688 10.800781 -8.894531 10.90625 -9.34375 C 11.007812 -9.789062 11.0625 -10.25 11.0625 -10.71875 C 11.0625 -11.476562 10.617188 -11.859375 9.734375 -11.859375 C 8.859375 -11.859375 8.019531 -11.203125 7.21875 -9.890625 C 6.425781 -8.585938 5.890625 -7.238281 5.609375 -5.84375 L 5.609375 -5.609375 C 5.609375 -4.890625 5.71875 -4.144531 5.9375 -3.375 C 6.164062 -2.613281 6.28125 -2.082031 6.28125 -1.78125 C 6.28125 -1.0625 5.378906 -0.351562 3.578125 0.34375 C 3.296875 0.457031 3.050781 0.515625 2.84375 0.515625 C 2.3125 0.515625 1.941406 0.238281 1.734375 -0.3125 C 1.535156 -0.863281 1.4375 -1.726562 1.4375 -2.90625 C 1.4375 -5.925781 1.550781 -8.101562 1.78125 -9.4375 C 2.101562 -11.4375 2.828125 -13.296875 3.953125 -15.015625 C 4.335938 -15.609375 4.753906 -15.90625 5.203125 -15.90625 Z M 5.203125 -15.90625 "/></g></g></g><g fill="#000000" fill-opacity="1"><g transform="translate(158.755169, 48.339706)"><g><path d="M 5.203125 -15.90625 C 5.960938 -15.90625 6.679688 -15.175781 7.359375 -13.71875 C 8.359375 -14.757812 9.597656 -15.28125 11.078125 -15.28125 C 12.554688 -15.28125 13.664062 -14.953125 14.40625 -14.296875 C 15.15625 -13.648438 15.53125 -12.738281 15.53125 -11.5625 C 15.53125 -10.382812 15.375 -9.1875 15.0625 -7.96875 C 14.757812 -6.757812 14.535156 -5.894531 14.390625 -5.375 C 14.253906 -4.851562 14.1875 -4.421875 14.1875 -4.078125 C 14.1875 -3.742188 14.304688 -3.578125 14.546875 -3.578125 C 14.859375 -3.578125 15.25 -3.773438 15.71875 -4.171875 C 16.1875 -4.578125 16.65625 -5.019531 17.125 -5.5 C 17.59375 -5.976562 18.019531 -6.421875 18.40625 -6.828125 C 18.800781 -7.234375 19.078125 -7.4375 19.234375 -7.4375 C 19.523438 -7.4375 19.671875 -7.070312 19.671875 -6.34375 C 19.671875 -4.851562 18.9375 -3.421875 17.46875 -2.046875 C 15.007812 -0.597656 13.4375 0.125 12.75 0.125 C 12.6875 0.125 12.644531 0.113281 12.625 0.09375 C 10.925781 0.09375 10.078125 -1.265625 10.078125 -3.984375 C 10.078125 -5.148438 10.1875 -6.222656 10.40625 -7.203125 C 10.632812 -8.179688 10.800781 -8.894531 10.90625 -9.34375 C 11.007812 -9.789062 11.0625 -10.25 11.0625 -10.71875 C 11.0625 -11.476562 10.617188 -11.859375 9.734375 -11.859375 C 8.859375 -11.859375 8.019531 -11.203125 7.21875 -9.890625 C 6.425781 -8.585938 5.890625 -7.238281 5.609375 -5.84375 L 5.609375 -5.609375 C 5.609375 -4.890625 5.71875 -4.144531 5.9375 -3.375 C 6.164062 -2.613281 6.28125 -2.082031 6.28125 -1.78125 C 6.28125 -1.0625 5.378906 -0.351562 3.578125 0.34375 C 3.296875 0.457031 3.050781 0.515625 2.84375 0.515625 C 2.3125 0.515625 1.941406 0.238281 1.734375 -0.3125 C 1.535156 -0.863281 1.4375 -1.726562 1.4375 -2.90625 C 1.4375 -5.925781 1.550781 -8.101562 1.78125 -9.4375 C 2.101562 -11.4375 2.828125 -13.296875 3.953125 -15.015625 C 4.335938 -15.609375 4.753906 -15.90625 5.203125 -15.90625 Z M 5.203125 -15.90625 "/></g></g></g><g fill="#000000" fill-opacity="1"><g transform="translate(175.879199, 48.339706)"><g><path d="M 9.53125 -2.328125 C 8.46875 -0.859375 7.046875 -0.125 5.265625 -0.125 C 3.816406 -0.125 2.660156 -0.425781 1.796875 -1.03125 C 0.941406 -1.644531 0.515625 -2.609375 0.515625 -3.921875 C 0.515625 -4.472656 0.59375 -4.984375 0.75 -5.453125 C 0.90625 -5.921875 1.164062 -6.492188 1.53125 -7.171875 L 2.453125 -14.734375 C 3.109375 -15.242188 4.003906 -15.5 5.140625 -15.5 C 6.085938 -15.5 6.628906 -14.859375 6.765625 -13.578125 C 6.804688 -13.203125 6.828125 -12.753906 6.828125 -12.234375 C 6.828125 -11.710938 6.738281 -11.164062 6.5625 -10.59375 C 5.71875 -7.65625 5.304688 -5.6875 5.328125 -4.6875 C 5.328125 -3.925781 5.769531 -3.546875 6.65625 -3.546875 C 7.550781 -3.546875 8.210938 -3.832031 8.640625 -4.40625 C 9.066406 -4.976562 9.429688 -5.6875 9.734375 -6.53125 C 10.285156 -8.894531 10.796875 -10.84375 11.265625 -12.375 C 11.742188 -13.90625 12.050781 -14.816406 12.1875 -15.109375 C 12.394531 -15.617188 12.796875 -15.882812 13.390625 -15.90625 C 13.984375 -15.882812 14.546875 -15.460938 15.078125 -14.640625 C 15.609375 -13.828125 15.875 -13.195312 15.875 -12.75 C 15.832031 -11.269531 14.910156 -7.519531 13.109375 -1.5 C 14.492188 -2.582031 15.863281 -3.910156 17.21875 -5.484375 C 17.6875 -6.035156 18.078125 -6.5 18.390625 -6.875 C 18.710938 -7.25 18.972656 -7.4375 19.171875 -7.4375 C 19.460938 -7.4375 19.609375 -7.09375 19.609375 -6.40625 C 19.609375 -5.070312 18.859375 -3.507812 17.359375 -1.71875 C 15.859375 0.0625 14.023438 1.453125 11.859375 2.453125 C 11.609375 3.304688 11.332031 4.113281 11.03125 4.875 C 10.738281 5.644531 10.359375 6.316406 9.890625 6.890625 C 8.867188 8.117188 7.316406 8.734375 5.234375 8.734375 C 3.828125 8.734375 2.628906 8.328125 1.640625 7.515625 C 0.648438 6.710938 0.15625 5.707031 0.15625 4.5 C 0.15625 3.8125 0.382812 3.265625 0.84375 2.859375 C 1.300781 2.460938 1.925781 2.128906 2.71875 1.859375 C 3.519531 1.597656 4.453125 1.363281 5.515625 1.15625 C 6.578125 0.957031 7.710938 0.710938 8.921875 0.421875 C 9.222656 -0.859375 9.425781 -1.773438 9.53125 -2.328125 Z M 5.203125 6.28125 C 6.203125 6.28125 7.101562 5.410156 7.90625 3.671875 C 7.144531 3.816406 6.460938 3.925781 5.859375 4 C 5.265625 4.070312 4.757812 4.140625 4.34375 4.203125 C 3.488281 4.335938 3.070312 4.5625 3.09375 4.875 C 3.09375 5.28125 3.332031 5.617188 3.8125 5.890625 C 4.289062 6.171875 4.753906 6.300781 5.203125 6.28125 Z M 5.203125 6.28125 "/></g></g></g></svg>