<svg xmlns="http://www.w3.org/2000/svg" xmlns:xlink="http://www.w3.org/1999/xlink" width="500" zoomAndPan="magnify" viewBox="0 0 375 374.999991" height="500" preserveAspectRatio="xMidYMid meet" version="1.0"><defs><g/></defs><g fill="#000000" fill-opacity="1"><g transform="translate(132.845485, 194.85905)"><g><path d="M 7.109375 -9.65625 C 8.359375 -9.65625 8.984375 -9.335938 8.984375 -8.703125 C 8.984375 -7.960938 8.265625 -7.59375 6.828125 -7.59375 C 6.503906 -7.59375 6.15625 -7.65625 5.78125 -7.78125 C 5.363281 -7.488281 5.039062 -7.125 4.8125 -6.6875 C 4.59375 -6.257812 4.484375 -5.632812 4.484375 -4.8125 C 4.484375 -4 4.800781 -3.394531 5.4375 -3 C 6.082031 -2.613281 6.84375 -2.421875 7.71875 -2.421875 C 8.59375 -2.421875 9.300781 -2.5625 9.84375 -2.84375 C 10.382812 -3.125 10.859375 -3.429688 11.265625 -3.765625 C 11.671875 -4.097656 12 -4.40625 12.25 -4.6875 C 12.5 -4.96875 12.679688 -5.109375 12.796875 -5.109375 C 12.910156 -5.109375 13.003906 -5.03125 13.078125 -4.875 C 13.148438 -4.726562 13.1875 -4.53125 13.1875 -4.28125 C 13.1875 -3.132812 12.546875 -2.125 11.265625 -1.25 C 9.992188 -0.375 8.46875 0.0625 6.6875 0.0625 C 3.914062 0.0625 2.117188 -0.738281 1.296875 -2.34375 C 1.003906 -2.90625 0.859375 -3.582031 0.859375 -4.375 C 0.859375 -6.4375 1.894531 -7.878906 3.96875 -8.703125 C 2.90625 -9.441406 2.375 -10.554688 2.375 -12.046875 C 2.375 -12.753906 2.570312 -13.410156 2.96875 -14.015625 C 2.601562 -14.421875 2.304688 -14.84375 2.078125 -15.28125 C 1.859375 -15.726562 1.75 -16.070312 1.75 -16.3125 C 1.75 -16.707031 1.894531 -16.90625 2.1875 -16.90625 C 2.382812 -16.90625 2.628906 -16.75 2.921875 -16.4375 C 3.222656 -16.132812 3.46875 -15.890625 3.65625 -15.703125 C 3.84375 -15.515625 4.039062 -15.363281 4.25 -15.25 C 5.46875 -16 6.90625 -16.375 8.5625 -16.375 C 10.226562 -16.375 11.335938 -15.910156 11.890625 -14.984375 C 12.085938 -14.640625 12.1875 -14.210938 12.1875 -13.703125 C 12.1875 -12.941406 11.851562 -12.300781 11.1875 -11.78125 C 10.53125 -11.257812 9.660156 -11 8.578125 -11 C 7.492188 -11 6.484375 -11.347656 5.546875 -12.046875 C 5.523438 -11.984375 5.515625 -11.925781 5.515625 -11.875 L 5.515625 -11.390625 C 5.515625 -11.128906 5.597656 -10.820312 5.765625 -10.46875 C 5.929688 -10.113281 6.140625 -9.820312 6.390625 -9.59375 C 6.609375 -9.632812 6.847656 -9.65625 7.109375 -9.65625 Z M 9.78125 -13.390625 C 9.78125 -13.953125 9.316406 -14.234375 8.390625 -14.234375 C 7.472656 -14.234375 6.734375 -13.953125 6.171875 -13.390625 C 6.953125 -12.910156 7.75 -12.671875 8.5625 -12.671875 C 9.375 -12.671875 9.78125 -12.910156 9.78125 -13.390625 Z M 9.78125 -13.390625 "/></g></g></g><g fill="#000000" fill-opacity="1"><g transform="translate(144.297773, 194.85905)"><g><path d="M 4.078125 -9.53125 C 4.078125 -8.5625 3.898438 -7.460938 3.546875 -6.234375 C 3.578125 -5.773438 3.59375 -5.328125 3.59375 -4.890625 C 3.59375 -4.460938 3.625 -4.085938 3.6875 -3.765625 C 3.894531 -3.191406 4.164062 -2.835938 4.5 -2.703125 C 4.789062 -2.703125 5.109375 -2.953125 5.453125 -3.453125 C 5.804688 -3.953125 6.160156 -4.546875 6.515625 -5.234375 C 6.347656 -5.898438 6.265625 -6.53125 6.265625 -7.125 C 6.265625 -8.164062 6.421875 -8.925781 6.734375 -9.40625 C 7.117188 -10.007812 7.707031 -10.3125 8.5 -10.3125 C 9.300781 -10.3125 9.832031 -10.007812 10.09375 -9.40625 C 10.195312 -9.164062 10.25 -8.90625 10.25 -8.625 C 10.25 -8.101562 10.117188 -7.570312 9.859375 -7.03125 C 9.597656 -6.488281 9.175781 -5.773438 8.59375 -4.890625 C 8.851562 -4.128906 9.242188 -3.75 9.765625 -3.75 C 10.398438 -3.757812 10.945312 -3.984375 11.40625 -4.421875 C 11.582031 -4.585938 11.734375 -4.734375 11.859375 -4.859375 C 11.984375 -4.992188 12.109375 -5.0625 12.234375 -5.0625 C 12.429688 -5.0625 12.53125 -4.828125 12.53125 -4.359375 C 12.53125 -3.460938 12.273438 -2.804688 11.765625 -2.390625 C 11.253906 -1.984375 10.609375 -1.78125 9.828125 -1.78125 C 8.804688 -1.78125 7.992188 -2.226562 7.390625 -3.125 C 5.691406 -0.925781 4.273438 0.171875 3.140625 0.171875 C 2.691406 0.171875 2.25 -0.460938 1.8125 -1.734375 C 1.382812 -3.003906 1.054688 -4.722656 0.828125 -6.890625 C 0.648438 -8.253906 0.75 -9.234375 1.125 -9.828125 C 1.445312 -10.296875 2.066406 -10.53125 2.984375 -10.53125 C 3.335938 -10.53125 3.609375 -10.421875 3.796875 -10.203125 C 3.984375 -9.992188 4.078125 -9.769531 4.078125 -9.53125 Z M 4.078125 -9.53125 "/></g></g></g><g fill="#000000" fill-opacity="1"><g transform="translate(155.208837, 194.85905)"><g><path d="M 13.953125 -5.109375 C 14.210938 -5.109375 14.34375 -4.773438 14.34375 -4.109375 C 14.34375 -3.753906 14.1875 -3.316406 13.875 -2.796875 C 13.570312 -2.285156 13.175781 -1.816406 12.6875 -1.390625 C 12.207031 -0.972656 11.671875 -0.625 11.078125 -0.34375 C 10.492188 -0.0703125 9.921875 0.0625 9.359375 0.0625 C 8.585938 0.0625 8.070312 -0.609375 7.8125 -1.953125 C 7.4375 -1.328125 6.945312 -0.816406 6.34375 -0.421875 C 5.738281 -0.0234375 4.925781 0.171875 3.90625 0.171875 C 2.882812 0.171875 2.0625 -0.144531 1.4375 -0.78125 C 0.820312 -1.414062 0.523438 -2.1875 0.546875 -3.09375 C 0.546875 -5.550781 1.359375 -7.488281 2.984375 -8.90625 C 3.679688 -9.488281 4.328125 -9.875 4.921875 -10.0625 C 5.523438 -10.257812 6.15625 -10.359375 6.8125 -10.359375 C 7.476562 -10.359375 8.023438 -10.238281 8.453125 -10 C 8.648438 -10.425781 8.878906 -10.640625 9.140625 -10.640625 C 9.640625 -10.640625 10.117188 -10.414062 10.578125 -9.96875 C 11.035156 -9.53125 11.265625 -9.117188 11.265625 -8.734375 C 11.054688 -8.253906 10.757812 -7.679688 10.375 -7.015625 C 10.257812 -6.347656 10.203125 -5.414062 10.203125 -4.21875 C 10.203125 -3.019531 10.351562 -2.421875 10.65625 -2.421875 C 11.03125 -2.421875 11.941406 -3.171875 13.390625 -4.671875 C 13.640625 -4.960938 13.828125 -5.109375 13.953125 -5.109375 Z M 3.71875 -3.8125 C 3.71875 -2.695312 4.128906 -2.140625 4.953125 -2.140625 C 5.835938 -2.160156 6.566406 -2.628906 7.140625 -3.546875 C 7.347656 -3.867188 7.515625 -4.257812 7.640625 -4.71875 C 7.640625 -6.332031 7.785156 -7.71875 8.078125 -8.875 C 6.910156 -8.644531 5.890625 -8.082031 5.015625 -7.1875 C 4.148438 -6.289062 3.71875 -5.164062 3.71875 -3.8125 Z M 3.71875 -3.8125 "/></g></g></g><g fill="#000000" fill-opacity="1"><g transform="translate(167.808515, 194.85905)"><g><path d="M 3.53125 -10.8125 C 4.050781 -10.8125 4.539062 -10.3125 5 -9.3125 C 5.675781 -10.019531 6.515625 -10.375 7.515625 -10.375 C 8.523438 -10.375 9.28125 -10.148438 9.78125 -9.703125 C 10.289062 -9.265625 10.546875 -8.644531 10.546875 -7.84375 C 10.546875 -7.050781 10.441406 -6.238281 10.234375 -5.40625 C 10.023438 -4.582031 9.875 -3.992188 9.78125 -3.640625 C 9.6875 -3.296875 9.640625 -3.003906 9.640625 -2.765625 C 9.640625 -2.535156 9.71875 -2.421875 9.875 -2.421875 C 10.09375 -2.421875 10.359375 -2.554688 10.671875 -2.828125 C 10.992188 -3.109375 11.3125 -3.410156 11.625 -3.734375 C 11.945312 -4.054688 12.238281 -4.351562 12.5 -4.625 C 12.769531 -4.90625 12.957031 -5.046875 13.0625 -5.046875 C 13.257812 -5.046875 13.359375 -4.800781 13.359375 -4.3125 C 13.359375 -3.300781 12.863281 -2.328125 11.875 -1.390625 C 10.195312 -0.398438 9.125 0.09375 8.65625 0.09375 C 8.613281 0.09375 8.585938 0.0820312 8.578125 0.0625 C 7.421875 0.0625 6.84375 -0.859375 6.84375 -2.703125 C 6.84375 -3.492188 6.914062 -4.222656 7.0625 -4.890625 C 7.21875 -5.554688 7.332031 -6.039062 7.40625 -6.34375 C 7.476562 -6.644531 7.515625 -6.957031 7.515625 -7.28125 C 7.515625 -7.800781 7.210938 -8.0625 6.609375 -8.0625 C 6.015625 -8.0625 5.445312 -7.613281 4.90625 -6.71875 C 4.363281 -5.832031 4 -4.914062 3.8125 -3.96875 L 3.8125 -3.8125 C 3.8125 -3.320312 3.882812 -2.816406 4.03125 -2.296875 C 4.1875 -1.773438 4.265625 -1.414062 4.265625 -1.21875 C 4.265625 -0.71875 3.648438 -0.234375 2.421875 0.234375 C 2.234375 0.304688 2.066406 0.34375 1.921875 0.34375 C 1.566406 0.34375 1.316406 0.15625 1.171875 -0.21875 C 1.035156 -0.59375 0.96875 -1.175781 0.96875 -1.96875 C 0.96875 -4.019531 1.050781 -5.5 1.21875 -6.40625 C 1.425781 -7.769531 1.914062 -9.035156 2.6875 -10.203125 C 2.945312 -10.609375 3.226562 -10.8125 3.53125 -10.8125 Z M 3.53125 -10.8125 "/></g></g></g><g fill="#000000" fill-opacity="1"><g transform="translate(179.433993, 194.85905)"><g/></g></g><g fill="#000000" fill-opacity="1"><g transform="translate(188.093565, 194.85905)"><g><path d="M 6.671875 -13.140625 C 6.078125 -13.503906 5.5 -13.6875 4.9375 -13.6875 C 4.03125 -13.6875 3.035156 -13.539062 1.953125 -13.25 L 0.78125 -12.96875 C 0.4375 -12.882812 0.171875 -12.84375 -0.015625 -12.84375 C -0.453125 -12.84375 -0.671875 -13 -0.671875 -13.3125 C -0.671875 -13.5 -0.515625 -13.734375 -0.203125 -14.015625 C 0.109375 -14.296875 0.523438 -14.566406 1.046875 -14.828125 C 2.328125 -15.460938 3.71875 -15.78125 5.21875 -15.78125 C 7.375 -15.78125 8.753906 -15.414062 9.359375 -14.6875 C 9.523438 -14.476562 9.609375 -14.195312 9.609375 -13.84375 C 9.585938 -12.4375 8.941406 -8.707031 7.671875 -2.65625 C 9.367188 -3.351562 10.410156 -3.925781 10.796875 -4.375 C 11.179688 -4.820312 11.476562 -5.046875 11.6875 -5.046875 C 11.90625 -5.046875 12.015625 -4.820312 12.015625 -4.375 C 12.015625 -3.925781 11.878906 -3.535156 11.609375 -3.203125 C 11.347656 -2.867188 10.929688 -2.492188 10.359375 -2.078125 C 9.785156 -1.660156 8.742188 -1.125 7.234375 -0.46875 C 7.117188 0.101562 6.898438 0.742188 6.578125 1.453125 C 5.492188 4.441406 3.726562 5.9375 1.28125 5.9375 C 0.0820312 5.9375 -0.929688 5.675781 -1.765625 5.15625 C -2.609375 4.632812 -3.03125 3.832031 -3.03125 2.75 C -3.03125 2.363281 -2.832031 1.992188 -2.4375 1.640625 C -2.039062 1.296875 -1.460938 0.929688 -0.703125 0.546875 C 0.0546875 0.171875 1.53125 -0.40625 3.71875 -1.1875 C 3.8125 -1.695312 3.882812 -2.171875 3.9375 -2.609375 C 4 -3.046875 4.066406 -3.425781 4.140625 -3.75 C 4.441406 -5.8125 5.039062 -8.242188 5.9375 -11.046875 C 6.195312 -11.835938 6.441406 -12.535156 6.671875 -13.140625 Z M -0.171875 3.890625 C 0.253906 4.128906 0.660156 4.25 1.046875 4.25 C 1.441406 4.257812 1.738281 4.171875 1.9375 3.984375 C 2.144531 3.804688 2.367188 3.515625 2.609375 3.109375 C 2.847656 2.710938 3.082031 2.007812 3.3125 1 C 2.5625 1.257812 1.921875 1.472656 1.390625 1.640625 C 0.867188 1.816406 0.441406 1.976562 0.109375 2.125 C -0.210938 2.269531 -0.445312 2.40625 -0.59375 2.53125 C -0.75 2.664062 -0.828125 2.828125 -0.828125 3.015625 C -0.828125 3.367188 -0.609375 3.660156 -0.171875 3.890625 Z M -0.171875 3.890625 "/></g></g></g><g fill="#000000" fill-opacity="1"><g transform="translate(198.268561, 194.85905)"><g><path d="M 5.703125 -2.359375 C 6.828125 -2.359375 7.914062 -2.804688 8.96875 -3.703125 C 9.351562 -4.035156 9.664062 -4.34375 9.90625 -4.625 C 10.15625 -4.90625 10.347656 -5.046875 10.484375 -5.046875 C 10.679688 -5.046875 10.78125 -4.84375 10.78125 -4.4375 C 10.78125 -4.03125 10.671875 -3.578125 10.453125 -3.078125 C 10.242188 -2.585938 9.882812 -2.101562 9.375 -1.625 C 8.132812 -0.457031 6.429688 0.125 4.265625 0.125 C 2.546875 0.125 1.378906 -0.492188 0.765625 -1.734375 C 0.546875 -2.160156 0.4375 -2.78125 0.4375 -3.59375 C 0.4375 -4.40625 0.59375 -5.242188 0.90625 -6.109375 C 1.226562 -6.984375 1.648438 -7.738281 2.171875 -8.375 C 2.703125 -9.007812 3.3125 -9.503906 4 -9.859375 C 4.695312 -10.210938 5.4375 -10.390625 6.21875 -10.390625 C 7.007812 -10.390625 7.617188 -10.191406 8.046875 -9.796875 C 8.472656 -9.410156 8.6875 -8.90625 8.6875 -8.28125 C 8.6875 -7.664062 8.53125 -7.160156 8.21875 -6.765625 C 7.90625 -6.367188 7.503906 -6.035156 7.015625 -5.765625 C 6.523438 -5.503906 5.976562 -5.269531 5.375 -5.0625 C 4.78125 -4.851562 4.191406 -4.617188 3.609375 -4.359375 L 3.609375 -3.8125 C 3.628906 -3.289062 3.847656 -2.921875 4.265625 -2.703125 C 4.679688 -2.484375 5.160156 -2.367188 5.703125 -2.359375 Z M 5.328125 -8.46875 C 4.578125 -8.46875 4.054688 -7.59375 3.765625 -5.84375 C 4.066406 -6.050781 4.351562 -6.234375 4.625 -6.390625 C 4.894531 -6.546875 5.128906 -6.695312 5.328125 -6.84375 C 5.765625 -7.15625 5.988281 -7.515625 6 -7.921875 C 6 -8.285156 5.773438 -8.46875 5.328125 -8.46875 Z M 5.328125 -8.46875 "/></g></g></g><g fill="#000000" fill-opacity="1"><g transform="translate(207.317819, 194.85905)"><g><path d="M 3.53125 -10.8125 C 4.050781 -10.8125 4.539062 -10.3125 5 -9.3125 C 5.675781 -10.019531 6.515625 -10.375 7.515625 -10.375 C 8.523438 -10.375 9.28125 -10.148438 9.78125 -9.703125 C 10.289062 -9.265625 10.546875 -8.644531 10.546875 -7.84375 C 10.546875 -7.050781 10.441406 -6.238281 10.234375 -5.40625 C 10.023438 -4.582031 9.875 -3.992188 9.78125 -3.640625 C 9.6875 -3.296875 9.640625 -3.003906 9.640625 -2.765625 C 9.640625 -2.535156 9.71875 -2.421875 9.875 -2.421875 C 10.09375 -2.421875 10.359375 -2.554688 10.671875 -2.828125 C 10.992188 -3.109375 11.3125 -3.410156 11.625 -3.734375 C 11.945312 -4.054688 12.238281 -4.351562 12.5 -4.625 C 12.769531 -4.90625 12.957031 -5.046875 13.0625 -5.046875 C 13.257812 -5.046875 13.359375 -4.800781 13.359375 -4.3125 C 13.359375 -3.300781 12.863281 -2.328125 11.875 -1.390625 C 10.195312 -0.398438 9.125 0.09375 8.65625 0.09375 C 8.613281 0.09375 8.585938 0.0820312 8.578125 0.0625 C 7.421875 0.0625 6.84375 -0.859375 6.84375 -2.703125 C 6.84375 -3.492188 6.914062 -4.222656 7.0625 -4.890625 C 7.21875 -5.554688 7.332031 -6.039062 7.40625 -6.34375 C 7.476562 -6.644531 7.515625 -6.957031 7.515625 -7.28125 C 7.515625 -7.800781 7.210938 -8.0625 6.609375 -8.0625 C 6.015625 -8.0625 5.445312 -7.613281 4.90625 -6.71875 C 4.363281 -5.832031 4 -4.914062 3.8125 -3.96875 L 3.8125 -3.8125 C 3.8125 -3.320312 3.882812 -2.816406 4.03125 -2.296875 C 4.1875 -1.773438 4.265625 -1.414062 4.265625 -1.21875 C 4.265625 -0.71875 3.648438 -0.234375 2.421875 0.234375 C 2.234375 0.304688 2.066406 0.34375 1.921875 0.34375 C 1.566406 0.34375 1.316406 0.15625 1.171875 -0.21875 C 1.035156 -0.59375 0.96875 -1.175781 0.96875 -1.96875 C 0.96875 -4.019531 1.050781 -5.5 1.21875 -6.40625 C 1.425781 -7.769531 1.914062 -9.035156 2.6875 -10.203125 C 2.945312 -10.609375 3.226562 -10.8125 3.53125 -10.8125 Z M 3.53125 -10.8125 "/></g></g></g><g fill="#000000" fill-opacity="1"><g transform="translate(218.943297, 194.85905)"><g><path d="M 3.53125 -10.8125 C 4.050781 -10.8125 4.539062 -10.3125 5 -9.3125 C 5.675781 -10.019531 6.515625 -10.375 7.515625 -10.375 C 8.523438 -10.375 9.28125 -10.148438 9.78125 -9.703125 C 10.289062 -9.265625 10.546875 -8.644531 10.546875 -7.84375 C 10.546875 -7.050781 10.441406 -6.238281 10.234375 -5.40625 C 10.023438 -4.582031 9.875 -3.992188 9.78125 -3.640625 C 9.6875 -3.296875 9.640625 -3.003906 9.640625 -2.765625 C 9.640625 -2.535156 9.71875 -2.421875 9.875 -2.421875 C 10.09375 -2.421875 10.359375 -2.554688 10.671875 -2.828125 C 10.992188 -3.109375 11.3125 -3.410156 11.625 -3.734375 C 11.945312 -4.054688 12.238281 -4.351562 12.5 -4.625 C 12.769531 -4.90625 12.957031 -5.046875 13.0625 -5.046875 C 13.257812 -5.046875 13.359375 -4.800781 13.359375 -4.3125 C 13.359375 -3.300781 12.863281 -2.328125 11.875 -1.390625 C 10.195312 -0.398438 9.125 0.09375 8.65625 0.09375 C 8.613281 0.09375 8.585938 0.0820312 8.578125 0.0625 C 7.421875 0.0625 6.84375 -0.859375 6.84375 -2.703125 C 6.84375 -3.492188 6.914062 -4.222656 7.0625 -4.890625 C 7.21875 -5.554688 7.332031 -6.039062 7.40625 -6.34375 C 7.476562 -6.644531 7.515625 -6.957031 7.515625 -7.28125 C 7.515625 -7.800781 7.210938 -8.0625 6.609375 -8.0625 C 6.015625 -8.0625 5.445312 -7.613281 4.90625 -6.71875 C 4.363281 -5.832031 4 -4.914062 3.8125 -3.96875 L 3.8125 -3.8125 C 3.8125 -3.320312 3.882812 -2.816406 4.03125 -2.296875 C 4.1875 -1.773438 4.265625 -1.414062 4.265625 -1.21875 C 4.265625 -0.71875 3.648438 -0.234375 2.421875 0.234375 C 2.234375 0.304688 2.066406 0.34375 1.921875 0.34375 C 1.566406 0.34375 1.316406 0.15625 1.171875 -0.21875 C 1.035156 -0.59375 0.96875 -1.175781 0.96875 -1.96875 C 0.96875 -4.019531 1.050781 -5.5 1.21875 -6.40625 C 1.425781 -7.769531 1.914062 -9.035156 2.6875 -10.203125 C 2.945312 -10.609375 3.226562 -10.8125 3.53125 -10.8125 Z M 3.53125 -10.8125 "/></g></g></g><g fill="#000000" fill-opacity="1"><g transform="translate(230.568775, 194.85905)"><g><path d="M 6.46875 -1.578125 C 5.75 -0.585938 4.785156 -0.09375 3.578125 -0.09375 C 2.585938 -0.09375 1.800781 -0.296875 1.21875 -0.703125 C 0.632812 -1.117188 0.34375 -1.769531 0.34375 -2.65625 C 0.34375 -3.039062 0.394531 -3.390625 0.5 -3.703125 C 0.613281 -4.015625 0.796875 -4.40625 1.046875 -4.875 L 1.671875 -10 C 2.117188 -10.351562 2.722656 -10.53125 3.484375 -10.53125 C 4.140625 -10.53125 4.507812 -10.09375 4.59375 -9.21875 C 4.625 -8.957031 4.640625 -8.648438 4.640625 -8.296875 C 4.640625 -7.953125 4.582031 -7.582031 4.46875 -7.1875 C 3.882812 -5.195312 3.597656 -3.863281 3.609375 -3.1875 C 3.609375 -2.664062 3.910156 -2.40625 4.515625 -2.40625 C 5.128906 -2.40625 5.578125 -2.597656 5.859375 -2.984375 C 6.148438 -3.378906 6.398438 -3.863281 6.609375 -4.4375 C 6.984375 -6.039062 7.332031 -7.363281 7.65625 -8.40625 C 7.976562 -9.445312 8.179688 -10.066406 8.265625 -10.265625 C 8.410156 -10.609375 8.6875 -10.789062 9.09375 -10.8125 C 9.5 -10.789062 9.878906 -10.503906 10.234375 -9.953125 C 10.597656 -9.398438 10.78125 -8.96875 10.78125 -8.65625 C 10.75 -7.644531 10.125 -5.097656 8.90625 -1.015625 C 9.84375 -1.753906 10.769531 -2.65625 11.6875 -3.71875 C 12.007812 -4.09375 12.28125 -4.40625 12.5 -4.65625 C 12.71875 -4.914062 12.890625 -5.046875 13.015625 -5.046875 C 13.210938 -5.046875 13.3125 -4.816406 13.3125 -4.359375 C 13.3125 -3.441406 12.800781 -2.375 11.78125 -1.15625 C 10.769531 0.0507812 9.53125 0.992188 8.0625 1.671875 C 7.882812 2.242188 7.691406 2.789062 7.484375 3.3125 C 7.285156 3.832031 7.03125 4.285156 6.71875 4.671875 C 6.019531 5.515625 4.960938 5.9375 3.546875 5.9375 C 2.597656 5.9375 1.785156 5.660156 1.109375 5.109375 C 0.441406 4.554688 0.109375 3.867188 0.109375 3.046875 C 0.109375 2.585938 0.265625 2.21875 0.578125 1.9375 C 0.890625 1.664062 1.3125 1.441406 1.84375 1.265625 C 2.382812 1.085938 3.015625 0.925781 3.734375 0.78125 C 4.460938 0.644531 5.238281 0.476562 6.0625 0.28125 C 6.257812 -0.582031 6.394531 -1.203125 6.46875 -1.578125 Z M 3.53125 4.265625 C 4.207031 4.265625 4.820312 3.671875 5.375 2.484375 C 4.851562 2.585938 4.390625 2.664062 3.984375 2.71875 C 3.578125 2.769531 3.226562 2.816406 2.9375 2.859375 C 2.363281 2.941406 2.082031 3.09375 2.09375 3.3125 C 2.09375 3.582031 2.253906 3.8125 2.578125 4 C 2.910156 4.1875 3.226562 4.273438 3.53125 4.265625 Z M 3.53125 4.265625 "/></g></g></g></svg>